<?xml version="1.0" encoding="utf-8"?>
<!-- Generator: Adobe Illustrator 16.0.0, SVG Export Plug-In . SVG Version: 6.00 Build 0)  -->
<!DOCTYPE svg PUBLIC "-//W3C//DTD SVG 1.1//EN" "http://www.w3.org/Graphics/SVG/1.1/DTD/svg11.dtd">
<svg version="1.1" id="Layer_1" xmlns="http://www.w3.org/2000/svg" xmlns:xlink="http://www.w3.org/1999/xlink" x="0px" y="0px"
	 width="84.5px" height="107.5px" viewBox="49.5 0 84.5 107.5" enable-background="new 49.5 0 84.5 107.5" xml:space="preserve">
<g>
	<path fill="#55565A" d="M68.145,76.528l1.988-5.287h1.145l1.988,5.287h-1.169l-0.32-0.908h-2.175l-0.318,0.908H68.145z
		 M70.682,72.582l-0.729,2.063h1.474l-0.729-2.063H70.682z"/>
	<path fill="#55565A" d="M76.115,71.131c1.316,0,2.36,0.781,2.561,2.069h-1.161c-0.156-0.664-0.692-1.035-1.399-1.035
		c-0.968,0-1.511,0.669-1.511,1.713c0,1.042,0.543,1.712,1.511,1.712c0.707,0,1.243-0.372,1.399-1.035h1.161
		c-0.2,1.289-1.241,2.069-2.561,2.069c-1.519,0-2.658-1.094-2.658-2.746C73.457,72.225,74.597,71.131,76.115,71.131z"/>
	<path fill="#55565A" d="M81.977,71.131c1.317,0,2.359,0.781,2.561,2.069h-1.162c-0.155-0.664-0.691-1.035-1.398-1.035
		c-0.968,0-1.512,0.669-1.512,1.713c0,1.042,0.542,1.712,1.512,1.712c0.707,0,1.243-0.372,1.398-1.035h1.162
		c-0.201,1.289-1.242,2.069-2.561,2.069c-1.519,0-2.658-1.094-2.658-2.746C79.318,72.225,80.458,71.131,81.977,71.131z"/>
	<path fill="#55565A" d="M88.307,76.528l-0.99-2.003h-1.041v2.003h-1.088v-5.287h2.397c1.153,0,1.765,0.686,1.765,1.653
		c0,0.7-0.319,1.259-0.938,1.512l1.154,2.122H88.307L88.307,76.528z M87.585,72.24h-1.312v1.288h1.312
		c0.453,0,0.678-0.245,0.678-0.633S88.038,72.24,87.585,72.24z"/>
	<path fill="#55565A" d="M94.145,76.528H90.34v-5.287h3.805v0.997h-2.717v1.11h2.606v0.998h-2.606v1.184h2.717V76.528z"/>
	<path fill="#55565A" d="M95.219,76.528v-5.287h1.898c1.802,0,2.784,1.11,2.784,2.642c0,1.533-0.982,2.643-2.784,2.643
		L95.219,76.528L95.219,76.528z M97.087,72.24h-0.781v3.291h0.781c1.154,0,1.667-0.655,1.667-1.645
		C98.755,72.895,98.241,72.24,97.087,72.24z"/>
	<path fill="#55565A" d="M101.694,76.528h-1.088v-5.287h1.088V76.528z"/>
	<path fill="#55565A" d="M106.35,72.263h-1.452v4.267h-1.087v-4.267h-1.452v-1.02h3.991V72.263L106.35,72.263z"/>
	<path fill="#55565A" d="M110.559,76.528h-3.805v-5.287h3.805v0.997h-2.718v1.11h2.607v0.998h-2.607v1.184h2.718V76.528z"/>
	<path fill="#55565A" d="M111.433,76.528v-5.287h1.898c1.802,0,2.784,1.11,2.784,2.642c0,1.533-0.982,2.643-2.784,2.643
		L111.433,76.528L111.433,76.528z M113.301,72.24h-0.782v3.291h0.782c1.154,0,1.666-0.655,1.666-1.645
		C114.969,72.895,114.455,72.24,113.301,72.24z"/>
	<polygon fill="#99999A" points="100.839,23.427 100.839,38.971 116.383,54.515 116.383,23.427 	"/>
	<polygon fill="#CAC8C8" points="100.839,7.884 69.751,7.884 85.295,23.427 100.839,23.427 	"/>
	<rect x="100.839" y="7.884" fill="#55565A" width="15.544" height="15.543"/>
	<polygon fill="#99999A" points="83.688,40.579 83.688,25.036 68.145,9.492 68.145,40.579 	"/>
	<polygon fill="#CAC8C8" points="83.688,56.124 114.774,56.124 99.231,40.579 83.688,40.579 	"/>
	<rect x="68.145" y="40.579" fill="#55565A" width="15.542" height="15.544"/>
	<path fill="#55565A" d="M67.608,69.037l4.163-11.072h2.401l4.165,11.072H75.89l-0.671-1.902h-4.553l-0.67,1.902H67.608z
		 M72.927,60.771l-1.529,4.32h3.088l-1.529-4.32H72.927z"/>
	<path fill="#55565A" d="M77.851,69.037l4.165-11.072h2.401l4.164,11.072h-2.448l-0.671-1.902h-4.553l-0.67,1.902H77.851z
		 M83.168,60.771l-1.527,4.32h3.088l-1.528-4.32H83.168z"/>
	<path fill="#55565A" d="M105.35,65.949c0-2.184-5.925-0.468-5.925-4.804c0-1.871,1.482-3.415,4.04-3.415
		c2.589,0,4.053,1.7,4.117,3.694h-2.23c-0.047-0.965-0.732-1.667-1.918-1.667c-1.076,0-1.763,0.53-1.763,1.248
		c0,2.214,5.989,0.467,5.989,4.866c0,1.98-1.747,3.384-4.383,3.384c-3.072,0-4.21-1.902-4.272-3.727h2.245
		c0.063,0.904,0.718,1.699,2.152,1.699C104.618,67.228,105.35,66.76,105.35,65.949z"/>
	<path fill="#55565A" d="M108.404,69.037V57.965h4.679c2.54,0,3.68,1.356,3.68,3.041c0,1.154-0.593,2.028-1.543,2.447
		c1.015,0.39,1.699,1.264,1.699,2.448c0,1.902-1.231,3.134-3.633,3.134h-4.882V69.037z M110.619,60.032v2.401h2.447
		c0.874,0,1.404-0.407,1.404-1.201c0-0.654-0.405-1.2-1.404-1.2H110.619L110.619,60.032z M110.619,64.467v2.527h2.604
		c0.967,0,1.405-0.484,1.405-1.264c0-0.748-0.438-1.263-1.405-1.263L110.619,64.467L110.619,64.467z"/>
	<path fill="#55565A" d="M96.186,65.528c-0.48,0.994-1.468,1.544-2.712,1.544c-2.026,0-3.165-1.404-3.165-3.587
		c0-2.185,1.139-3.588,3.165-3.588c1.483,0,2.604,0.781,2.934,2.168h2.433c-0.421-2.698-2.604-4.335-5.366-4.335
		c-3.181,0-5.566,2.291-5.566,5.754c0,3.462,2.386,5.754,5.566,5.754c2.541,0,4.592-1.389,5.229-3.712h-2.518V65.528z"/>
</g>
</svg>
