<?xml version="1.0" encoding="utf-8"?>
<!-- Generator: Adobe Illustrator 16.0.0, SVG Export Plug-In . SVG Version: 6.00 Build 0)  -->
<!DOCTYPE svg PUBLIC "-//W3C//DTD SVG 1.1//EN" "http://www.w3.org/Graphics/SVG/1.1/DTD/svg11.dtd">
<svg version="1.1" id="Layer_1" xmlns="http://www.w3.org/2000/svg" xmlns:xlink="http://www.w3.org/1999/xlink" x="0px" y="0px"
	 width="142px" height="81.5px" viewBox="0 0 142 81.5" enable-background="new 0 0 142 81.5" xml:space="preserve">
<g>
	<path fill="#FFFFFF" d="M41.851,38.971c0.513,0,0.904,0,1.176,0.001c0.27,0.001,0.488,0.003,0.654,0.008
		c0.165,0.005,0.348,0.013,0.548,0.024l1.608,0.086c-0.025-0.07-0.047-0.16-0.061-0.271c-0.016-0.11-0.022-0.23-0.023-0.361
		c0.001-0.099,0.008-0.19,0.023-0.272c0.014-0.083,0.035-0.173,0.061-0.273c-0.621,0.02-1.201,0.04-1.742,0.063
		c-0.539,0.022-1.008,0.035-1.406,0.037c-0.48-0.002-1.008-0.011-1.58-0.031c-0.572-0.02-1.076-0.043-1.515-0.069
		c0.04,0.595,0.071,1.29,0.094,2.085c0.021,0.795,0.038,1.535,0.048,2.221c0.009,0.685,0.013,1.158,0.012,1.424
		c0,0.277-0.002,0.654-0.01,1.133c-0.006,0.477-0.015,0.966-0.024,1.466c-0.011,0.5-0.022,0.924-0.033,1.271
		c-0.009,0.357-0.021,0.715-0.036,1.067c-0.016,0.354-0.032,0.711-0.05,1.067c0.548-0.034,1.089-0.06,1.624-0.075
		c0.535-0.019,1.06-0.025,1.573-0.024c0.546-0.001,1.079,0.008,1.601,0.024c0.52,0.017,1.035,0.041,1.548,0.075
		c-0.033-0.092-0.056-0.187-0.067-0.28c-0.012-0.097-0.018-0.207-0.016-0.334c-0.002-0.118,0.004-0.224,0.016-0.313
		c0.012-0.091,0.034-0.175,0.067-0.248c-0.5,0.021-1.036,0.043-1.607,0.061s-1.088,0.033-1.547,0.043
		c-0.46,0.01-0.771,0.016-0.935,0.016v-4.639c0.395,0,0.791,0.004,1.188,0.012c0.398,0.006,0.795,0.014,1.189,0.023
		c0.214,0.008,0.432,0.021,0.652,0.035c0.22,0.017,0.442,0.031,0.665,0.051c-0.026-0.062-0.046-0.145-0.061-0.246
		c-0.015-0.104-0.023-0.215-0.023-0.336c0-0.125,0.009-0.236,0.023-0.332c0.014-0.096,0.034-0.189,0.061-0.282
		c-0.314,0.034-0.703,0.06-1.168,0.077c-0.463,0.018-0.924,0.029-1.383,0.035c-0.46,0.004-0.842,0.008-1.145,0.008L41.851,38.971
		L41.851,38.971z"/>
	<path fill="#FFFFFF" d="M57.07,38.629c-0.678-0.305-1.341-0.523-1.989-0.658c-0.646-0.134-1.318-0.199-2.014-0.196
		c-1.521,0.014-2.773,0.294-3.76,0.842c-0.987,0.548-1.719,1.286-2.197,2.216c-0.478,0.931-0.717,1.976-0.714,3.136
		c0.014,1.284,0.294,2.365,0.842,3.243c0.548,0.878,1.28,1.543,2.198,1.993c0.918,0.452,1.941,0.678,3.065,0.68
		c0.781,0,1.534-0.091,2.261-0.269c0.728-0.181,1.417-0.449,2.068-0.808l0.188-1.692l-0.188-0.121
		c-0.369,0.479-0.861,0.916-1.476,1.313c-0.614,0.399-1.439,0.612-2.477,0.637c-0.771-0.016-1.405-0.174-1.901-0.477
		c-0.496-0.304-0.895-0.664-1.195-1.082c-0.5-0.717-0.805-1.41-0.913-2.082c-0.108-0.672-0.151-1.168-0.131-1.492
		c0.004-1.627,0.377-2.884,1.118-3.771c0.742-0.886,1.829-1.334,3.263-1.346c0.812,0.014,1.444,0.122,1.896,0.327
		c0.452,0.204,0.779,0.432,0.98,0.683c0.201,0.251,0.332,0.451,0.391,0.599h0.172L57.07,38.629z"/>
	<path fill="#FFFFFF" d="M59.172,43.83c-0.005-0.803,0.127-1.598,0.394-2.387s0.697-1.447,1.29-1.976
		c0.595-0.528,1.379-0.802,2.355-0.823c0.993,0.013,1.786,0.254,2.378,0.724c0.594,0.472,1.02,1.097,1.279,1.877
		c0.26,0.78,0.387,1.642,0.382,2.585c0.005,0.833-0.13,1.645-0.401,2.432c-0.271,0.785-0.703,1.438-1.297,1.951
		c-0.594,0.514-1.375,0.781-2.341,0.801c-0.977-0.018-1.761-0.276-2.355-0.777c-0.593-0.502-1.023-1.146-1.29-1.93
		C59.299,45.52,59.167,44.697,59.172,43.83 M63.263,37.774c-1.168-0.003-2.236,0.216-3.203,0.657
		c-0.969,0.441-1.746,1.125-2.33,2.049c-0.584,0.924-0.883,2.108-0.898,3.555c0.012,1.252,0.301,2.312,0.863,3.182
		s1.322,1.529,2.28,1.983c0.958,0.452,2.038,0.681,3.236,0.685c1.927-0.022,3.466-0.59,4.615-1.699
		c1.148-1.11,1.737-2.631,1.765-4.562c-0.018-1.366-0.328-2.479-0.93-3.342c-0.601-0.862-1.379-1.497-2.334-1.903
		C65.369,37.972,64.349,37.77,63.263,37.774"/>
	<path fill="#FFFFFF" d="M70.819,45.044c0,0.169-0.002,0.397-0.006,0.687c-0.003,0.287-0.009,0.574-0.018,0.861
		c-0.007,0.285-0.016,0.512-0.027,0.676l-0.137,2.377c0.102-0.026,0.209-0.049,0.322-0.069c0.113-0.021,0.233-0.029,0.361-0.031
		c0.125,0.004,0.259,0.019,0.402,0.045c0.146,0.025,0.269,0.044,0.366,0.058c-0.04-0.51-0.068-0.908-0.089-1.189
		s-0.035-0.529-0.045-0.746c-0.009-0.217-0.017-0.484-0.021-0.801c-0.013-0.594-0.021-1.156-0.028-1.686
		c-0.008-0.531-0.014-1.09-0.018-1.677c-0.003-0.586-0.005-1.262-0.005-2.026c0.632,0.58,1.448,1.36,2.448,2.342
		c1,0.98,2.021,2.001,3.06,3.061c1.04,1.059,1.937,1.994,2.688,2.809c0.119-0.02,0.238-0.03,0.357-0.032
		c0.105,0.002,0.221,0.014,0.342,0.032c0-0.233-0.002-0.522-0.008-0.865c-0.006-0.344-0.009-0.62-0.01-0.828
		c-0.001-0.314-0.002-0.749-0.005-1.301c-0.003-0.553-0.005-1.11-0.008-1.674c-0.002-0.563-0.005-1.021-0.007-1.37
		c0-0.818,0.007-1.533,0.017-2.147c0.011-0.614,0.028-1.202,0.058-1.769c0.027-0.567,0.066-1.188,0.116-1.863
		c-0.1,0.025-0.207,0.049-0.319,0.068c-0.113,0.021-0.246,0.029-0.396,0.031c-0.152-0.002-0.287-0.011-0.404-0.031
		c-0.119-0.02-0.229-0.043-0.33-0.068c0.062,0.703,0.109,1.417,0.146,2.144c0.037,0.728,0.057,1.455,0.059,2.183v3.798
		c-0.18-0.146-0.33-0.271-0.447-0.368c-0.116-0.1-0.254-0.222-0.409-0.367l-2.019-1.984c-1.021-0.995-1.949-1.924-2.777-2.784
		c-0.828-0.862-1.644-1.734-2.442-2.619c-0.065,0.009-0.131,0.016-0.195,0.021c-0.064,0.007-0.129,0.01-0.195,0.01
		c-0.138-0.002-0.274-0.013-0.411-0.031c0.021,1.592,0.032,3.194,0.034,4.806L70.819,45.044L70.819,45.044z"/>
	<path fill="#FFFFFF" d="M84.305,43.83c-0.005-0.803,0.127-1.598,0.395-2.387c0.266-0.789,0.695-1.447,1.289-1.976
		c0.594-0.529,1.379-0.802,2.354-0.823c0.994,0.013,1.785,0.254,2.38,0.724c0.592,0.472,1.018,1.097,1.278,1.877
		c0.259,0.78,0.388,1.642,0.381,2.585c0.004,0.833-0.13,1.645-0.399,2.432c-0.271,0.785-0.705,1.438-1.299,1.951
		c-0.595,0.514-1.373,0.781-2.341,0.801c-0.977-0.018-1.762-0.276-2.354-0.777c-0.594-0.502-1.023-1.146-1.289-1.93
		C84.432,45.52,84.3,44.697,84.305,43.83 M88.396,37.774c-1.17-0.003-2.236,0.216-3.205,0.657s-1.744,1.125-2.328,2.049
		c-0.584,0.924-0.885,2.108-0.9,3.555c0.014,1.252,0.303,2.312,0.863,3.182c0.562,0.869,1.324,1.529,2.281,1.983
		c0.959,0.452,2.037,0.681,3.235,0.685c1.929-0.022,3.468-0.59,4.615-1.699c1.147-1.11,1.737-2.631,1.765-4.562
		c-0.018-1.366-0.326-2.479-0.929-3.342c-0.603-0.863-1.381-1.497-2.336-1.903C90.501,37.972,89.48,37.77,88.396,37.774"/>
	<path fill="#FFFFFF" d="M97.402,37.911c-0.061,0.011-0.123,0.021-0.188,0.031c-0.062,0.011-0.127,0.017-0.188,0.019
		c-0.067,0-0.135-0.004-0.196-0.012c-0.063-0.008-0.129-0.021-0.197-0.038c-0.055,0.522-0.149,1.286-0.284,2.29
		c-0.137,1.004-0.287,2.09-0.457,3.26c-0.172,1.17-0.336,2.266-0.498,3.287c-0.16,1.02-0.295,1.809-0.4,2.366l-0.102,0.53
		c0.108-0.027,0.223-0.051,0.338-0.069c0.117-0.021,0.242-0.031,0.379-0.032c0.104,0,0.222,0.01,0.354,0.025
		c0.134,0.016,0.274,0.041,0.433,0.076c0.061-1.289,0.158-2.576,0.287-3.861s0.272-2.528,0.43-3.732
		c0.093,0.168,0.256,0.465,0.494,0.889c0.235,0.425,0.475,0.854,0.713,1.281c0.238,0.433,0.406,0.738,0.504,0.926
		c0.422,0.812,0.768,1.472,1.039,1.979c0.271,0.509,0.506,0.949,0.707,1.327c0.199,0.376,0.406,0.771,0.615,1.191
		c0.051-0.008,0.106-0.018,0.164-0.022c0.055-0.006,0.108-0.01,0.16-0.01c0.061,0,0.115,0.004,0.172,0.01
		c0.055,0.006,0.111,0.017,0.172,0.022c0.346-0.791,0.763-1.664,1.248-2.613c0.485-0.95,0.979-1.879,1.481-2.787
		c0.502-0.909,0.949-1.697,1.342-2.363c0.015,0.192,0.045,0.516,0.095,0.967c0.049,0.451,0.104,0.948,0.166,1.487
		s0.121,1.039,0.172,1.5c0.055,0.46,0.092,0.795,0.115,1.006c0.012,0.117,0.027,0.324,0.047,0.623
		c0.021,0.3,0.041,0.601,0.059,0.902c0.021,0.302,0.037,0.519,0.049,0.646l0.051,0.633c0.26-0.034,0.48-0.061,0.658-0.075
		c0.18-0.017,0.35-0.025,0.506-0.025c0.131,0.001,0.314,0.013,0.551,0.032c0.238,0.02,0.465,0.042,0.682,0.068
		c-0.065-0.305-0.143-0.731-0.231-1.282c-0.088-0.552-0.174-1.111-0.256-1.681c-0.084-0.571-0.147-1.037-0.196-1.397
		c-0.136-1.021-0.262-2.017-0.375-2.989c-0.113-0.972-0.216-1.96-0.31-2.963l-0.138-1.42c-0.12,0.034-0.238,0.05-0.358,0.05
		c-0.062,0-0.123-0.004-0.188-0.012c-0.063-0.008-0.129-0.021-0.188-0.038c-0.569,1.142-1.063,2.118-1.483,2.928
		c-0.416,0.811-0.828,1.583-1.23,2.32c-0.402,0.734-0.867,1.562-1.391,2.482l-0.635,1.111l-0.925-1.642
		c-0.53-0.949-0.967-1.737-1.31-2.367c-0.342-0.63-0.656-1.226-0.944-1.788c-0.287-0.562-0.613-1.22-0.979-1.967L97.402,37.911z"/>
	<path fill="#FFFFFF" d="M110.239,41.862c0.004,1.477-0.005,2.884-0.023,4.224c-0.021,1.34-0.073,2.527-0.164,3.559
		c0.191-0.013,0.396-0.03,0.615-0.057c0.217-0.027,0.422-0.041,0.615-0.044c0.196,0.003,0.396,0.017,0.598,0.044
		c0.202,0.025,0.399,0.044,0.599,0.057c-0.066-0.688-0.111-1.506-0.138-2.453c-0.022-0.949-0.034-2.059-0.032-3.327
		c-0.002-0.595,0-1.271,0.006-2.029c0.006-0.76,0.021-1.492,0.049-2.2s0.07-1.282,0.133-1.723c-0.207,0.026-0.413,0.05-0.62,0.069
		c-0.206,0.021-0.403,0.029-0.593,0.031c-0.143-0.002-0.338-0.015-0.582-0.037c-0.244-0.023-0.455-0.044-0.633-0.063
		c0.082,0.823,0.133,1.555,0.149,2.194C110.236,40.744,110.243,41.33,110.239,41.862 M113.607,35.432
		c0.065-0.041,0.143-0.109,0.225-0.208s0.127-0.24,0.135-0.426c-0.007-0.216-0.088-0.386-0.24-0.511
		c-0.154-0.125-0.343-0.188-0.563-0.19c-0.154,0.005-0.302,0.052-0.442,0.142c-0.139,0.089-0.267,0.197-0.379,0.32l-2.41,2.602
		h0.873L113.607,35.432z"/>
	<path fill="#FFFFFF" d="M121.282,49.643c0.155-0.012,0.348-0.029,0.569-0.056c0.221-0.026,0.453-0.041,0.695-0.045
		c0.249,0.004,0.499,0.019,0.751,0.045c0.251,0.025,0.444,0.044,0.583,0.056c-0.261-0.564-0.548-1.195-0.857-1.892
		c-0.311-0.694-0.614-1.383-0.912-2.06c-0.297-0.676-0.557-1.27-0.777-1.776c-0.32-0.739-0.706-1.655-1.154-2.747
		c-0.449-1.094-0.886-2.235-1.31-3.429c-0.093,0.025-0.187,0.047-0.272,0.061c-0.089,0.016-0.182,0.021-0.275,0.021
		c-0.1,0-0.197-0.006-0.287-0.021c-0.092-0.014-0.184-0.035-0.275-0.061c-0.203,0.684-0.56,1.625-1.072,2.822
		c-0.512,1.197-1.196,2.753-2.059,4.669l-1.984,4.412c0.119-0.02,0.24-0.041,0.366-0.062c0.125-0.021,0.259-0.036,0.403-0.038
		c0.141,0.002,0.283,0.017,0.43,0.038c0.147,0.021,0.277,0.044,0.393,0.062c0.144-0.5,0.337-1.074,0.58-1.729
		c0.246-0.652,0.509-1.314,0.787-1.984c0.342-0.018,0.686-0.031,1.026-0.045c0.343-0.014,0.685-0.02,1.026-0.021
		c0.367,0.001,0.732,0.007,1.096,0.021c0.361,0.014,0.729,0.027,1.096,0.045l0.717,1.814L121.282,49.643z M119.35,44.873
		c-0.265,0.018-0.526,0.033-0.787,0.047c-0.261,0.012-0.521,0.02-0.787,0.021c-0.299-0.002-0.594-0.012-0.89-0.027
		c-0.295-0.016-0.592-0.029-0.889-0.04l1.744-4.208L119.35,44.873z"/>
	<path fill="#FFFFFF" d="M131.124,45.061c0.003-0.078,0.024-0.162,0.065-0.256c0.043-0.093,0.095-0.188,0.156-0.291
		c0.356-0.619,0.709-1.244,1.059-1.873c0.351-0.631,0.718-1.256,1.099-1.874c0.099-0.156,0.269-0.43,0.515-0.82
		c0.243-0.39,0.489-0.784,0.733-1.182c0.245-0.396,0.416-0.681,0.517-0.854c-0.093,0.034-0.193,0.06-0.305,0.077
		c-0.107,0.016-0.249,0.023-0.417,0.023c-0.188,0-0.364-0.011-0.534-0.031c-0.167-0.02-0.32-0.043-0.457-0.069
		c-0.396,0.876-0.728,1.591-0.992,2.145c-0.264,0.554-0.539,1.097-0.826,1.627c-0.289,0.532-0.67,1.201-1.142,2.008
		c-0.478-0.838-0.886-1.575-1.225-2.213c-0.337-0.636-0.644-1.234-0.92-1.798c-0.275-0.562-0.558-1.15-0.849-1.769
		c-0.25,0.042-0.494,0.069-0.732,0.083c-0.239,0.014-0.463,0.02-0.67,0.018c-0.184,0-0.387-0.008-0.605-0.023
		c-0.22-0.018-0.486-0.043-0.796-0.077c0.302,0.507,0.647,1.079,1.034,1.716c0.387,0.636,0.771,1.273,1.156,1.911
		c0.385,0.641,0.728,1.215,1.023,1.727l1.01,1.746c0,0.364-0.006,0.823-0.016,1.377c-0.009,0.551-0.021,1.116-0.038,1.697
		c-0.015,0.582-0.032,1.102-0.049,1.561c0.169-0.021,0.356-0.041,0.565-0.064c0.209-0.021,0.401-0.035,0.58-0.037
		c0.195,0.002,0.393,0.016,0.59,0.037c0.195,0.023,0.393,0.045,0.59,0.064c-0.035-0.771-0.064-1.449-0.086-2.033
		c-0.021-0.585-0.034-1.225-0.035-1.918L131.124,45.061L131.124,45.061z"/>
	<path fill="#FFFFFF" d="M39.765,61.062c0,0.17-0.002,0.397-0.006,0.687c-0.004,0.289-0.01,0.575-0.018,0.862
		c-0.008,0.285-0.018,0.51-0.028,0.675l-0.137,2.377c0.103-0.026,0.209-0.05,0.321-0.069c0.114-0.02,0.234-0.031,0.362-0.031
		c0.124,0.004,0.259,0.021,0.402,0.045c0.146,0.025,0.267,0.046,0.366,0.057c-0.039-0.511-0.069-0.907-0.09-1.188
		c-0.02-0.281-0.035-0.531-0.043-0.748c-0.009-0.217-0.016-0.482-0.021-0.799c-0.012-0.597-0.021-1.156-0.029-1.687
		c-0.007-0.531-0.013-1.09-0.016-1.677c-0.005-0.586-0.007-1.262-0.007-2.026c0.632,0.58,1.448,1.36,2.449,2.342
		c1,0.98,2.02,2,3.061,3.06c1.04,1.059,1.935,1.994,2.688,2.809c0.12-0.02,0.238-0.029,0.358-0.031
		c0.105,0.002,0.219,0.012,0.341,0.031c-0.001-0.232-0.003-0.521-0.009-0.865c-0.005-0.343-0.007-0.619-0.008-0.828
		c0-0.313-0.002-0.748-0.004-1.301c-0.003-0.553-0.007-1.109-0.009-1.674c-0.003-0.562-0.004-1.02-0.005-1.369
		c0-0.818,0.005-1.535,0.016-2.148c0.01-0.612,0.028-1.202,0.057-1.769c0.026-0.565,0.066-1.187,0.117-1.862
		c-0.101,0.025-0.208,0.049-0.32,0.068c-0.114,0.02-0.246,0.029-0.398,0.031c-0.152-0.002-0.287-0.012-0.404-0.031
		c-0.119-0.02-0.229-0.043-0.33-0.068c0.062,0.703,0.111,1.416,0.148,2.144c0.037,0.728,0.057,1.455,0.058,2.185v3.797
		c-0.181-0.146-0.329-0.27-0.447-0.369c-0.118-0.099-0.255-0.221-0.409-0.366l-2.02-1.985c-1.021-0.994-1.947-1.923-2.776-2.783
		c-0.829-0.861-1.644-1.735-2.442-2.619c-0.066,0.009-0.133,0.017-0.196,0.021c-0.062,0.006-0.128,0.01-0.196,0.01
		c-0.137-0.002-0.273-0.014-0.41-0.031c0.02,1.593,0.031,3.194,0.035,4.806L39.765,61.062L39.765,61.062z"/>
	<path fill="#FFFFFF" d="M55.837,54.988c0.514,0,0.906,0,1.176,0.002c0.271,0,0.488,0.004,0.654,0.01
		c0.166,0.004,0.35,0.012,0.549,0.023l1.607,0.086c-0.025-0.07-0.046-0.161-0.06-0.272c-0.016-0.11-0.022-0.229-0.024-0.36
		c0.002-0.1,0.009-0.19,0.024-0.272c0.014-0.082,0.034-0.172,0.06-0.271c-0.619,0.018-1.201,0.039-1.74,0.062
		c-0.54,0.022-1.009,0.034-1.406,0.037c-0.482-0.002-1.009-0.013-1.58-0.031c-0.574-0.021-1.078-0.043-1.516-0.067
		c0.039,0.594,0.071,1.289,0.093,2.084s0.039,1.533,0.048,2.22c0.01,0.685,0.015,1.159,0.014,1.425c0,0.275-0.004,0.652-0.011,1.131
		c-0.006,0.479-0.015,0.967-0.025,1.467c-0.01,0.5-0.021,0.924-0.032,1.271c-0.01,0.356-0.021,0.715-0.036,1.067
		c-0.017,0.354-0.032,0.711-0.05,1.067c0.547-0.034,1.089-0.06,1.624-0.075c0.536-0.016,1.06-0.025,1.573-0.025
		c0.546,0,1.079,0.011,1.6,0.025c0.52,0.016,1.037,0.041,1.549,0.075c-0.033-0.091-0.057-0.187-0.067-0.28
		c-0.012-0.098-0.018-0.209-0.016-0.334c-0.002-0.119,0.004-0.223,0.016-0.313c0.011-0.091,0.034-0.175,0.067-0.249
		c-0.501,0.021-1.037,0.044-1.607,0.062c-0.572,0.018-1.088,0.03-1.547,0.041c-0.46,0.012-0.771,0.016-0.936,0.016v-4.641
		c0.395,0,0.791,0.006,1.189,0.012c0.398,0.007,0.795,0.015,1.189,0.023c0.214,0.008,0.432,0.02,0.652,0.036
		c0.221,0.015,0.441,0.031,0.664,0.049c-0.025-0.062-0.045-0.144-0.06-0.246c-0.016-0.103-0.022-0.214-0.022-0.335
		c0-0.126,0.007-0.236,0.022-0.333c0.015-0.095,0.034-0.19,0.06-0.282c-0.314,0.033-0.703,0.062-1.166,0.076
		c-0.463,0.021-0.926,0.029-1.385,0.036s-0.842,0.009-1.145,0.009L55.837,54.988L55.837,54.988z"/>
	<path fill="#FFFFFF" d="M62.545,59.985c0.014,1.284,0.294,2.366,0.842,3.245c0.548,0.877,1.28,1.543,2.199,1.994
		c0.917,0.449,1.939,0.676,3.066,0.678c0.834-0.002,1.686-0.105,2.551-0.309c0.867-0.205,1.669-0.502,2.408-0.888
		c-0.016-0.233-0.028-0.474-0.038-0.714c-0.009-0.243-0.013-0.523-0.013-0.844c-0.002-0.17,0.004-0.44,0.013-0.812
		c0.01-0.374,0.022-0.756,0.043-1.146c0.021-0.391,0.048-0.696,0.082-0.918c-0.173,0.035-0.337,0.064-0.494,0.087
		c-0.158,0.021-0.353,0.032-0.582,0.034c-0.224-0.002-0.435-0.017-0.634-0.041c-0.2-0.024-0.395-0.053-0.581-0.08
		c0.025,0.421,0.051,0.84,0.07,1.259c0.021,0.42,0.031,0.839,0.032,1.258c0.002,0.088-0.001,0.226-0.007,0.413
		c-0.004,0.188-0.02,0.568-0.045,1.145c-0.35,0.221-0.74,0.379-1.169,0.476c-0.431,0.097-0.851,0.143-1.261,0.14
		c-0.771-0.014-1.404-0.173-1.901-0.477c-0.497-0.303-0.895-0.662-1.196-1.08c-0.396-0.523-0.67-1.088-0.824-1.69
		c-0.152-0.604-0.227-1.231-0.22-1.885c0.005-1.628,0.376-2.885,1.118-3.771c0.743-0.885,1.83-1.334,3.264-1.346
		c0.812,0.012,1.444,0.12,1.896,0.325c0.453,0.205,0.777,0.435,0.979,0.683c0.201,0.252,0.332,0.45,0.393,0.602h0.17l0.514-1.678
		c-0.678-0.306-1.34-0.523-1.987-0.656c-0.649-0.135-1.321-0.198-2.016-0.196c-1.521,0.013-2.774,0.292-3.761,0.841
		c-0.986,0.547-1.719,1.286-2.196,2.217C62.78,57.781,62.544,58.826,62.545,59.985"/>
	<path fill="#FFFFFF" d="M79.174,59.848c-0.005-0.802,0.126-1.598,0.393-2.385c0.267-0.789,0.695-1.447,1.291-1.975
		c0.593-0.529,1.379-0.805,2.354-0.824c0.993,0.012,1.785,0.254,2.378,0.725c0.594,0.472,1.02,1.097,1.279,1.877
		c0.26,0.779,0.387,1.641,0.382,2.582c0.004,0.836-0.131,1.646-0.401,2.433s-0.703,1.438-1.299,1.952
		c-0.594,0.515-1.373,0.781-2.339,0.802c-0.978-0.019-1.763-0.277-2.354-0.778c-0.596-0.502-1.024-1.146-1.291-1.93
		C79.3,61.541,79.169,60.715,79.174,59.848 M83.264,53.793c-1.166-0.003-2.234,0.217-3.201,0.658
		c-0.971,0.441-1.746,1.125-2.33,2.047c-0.584,0.926-0.885,2.109-0.898,3.555c0.012,1.252,0.301,2.313,0.861,3.184
		c0.562,0.869,1.324,1.529,2.283,1.982c0.957,0.453,2.035,0.682,3.234,0.685c1.928-0.021,3.467-0.589,4.614-1.699
		s1.737-2.631,1.768-4.56c-0.02-1.365-0.329-2.479-0.932-3.344c-0.601-0.861-1.38-1.496-2.336-1.902
		C85.371,53.991,84.35,53.789,83.264,53.793"/>
	<path fill="#FFFFFF" d="M102.989,54.646c-0.679-0.306-1.341-0.522-1.988-0.657c-0.647-0.134-1.319-0.198-2.017-0.196
		c-1.52,0.014-2.772,0.293-3.758,0.842c-0.987,0.547-1.719,1.287-2.197,2.217c-0.478,0.931-0.717,1.976-0.715,3.135
		c0.014,1.283,0.293,2.365,0.843,3.244c0.547,0.88,1.28,1.543,2.196,1.994c0.918,0.449,1.94,0.676,3.067,0.679
		c0.78,0,1.532-0.091,2.261-0.271c0.728-0.179,1.416-0.447,2.067-0.807l0.188-1.693l-0.188-0.119
		c-0.37,0.479-0.862,0.916-1.476,1.314c-0.614,0.4-1.439,0.611-2.478,0.636c-0.771-0.015-1.405-0.174-1.901-0.478
		c-0.494-0.303-0.894-0.662-1.194-1.078c-0.499-0.719-0.806-1.414-0.912-2.084c-0.106-0.671-0.153-1.168-0.131-1.493
		c0.004-1.628,0.377-2.885,1.118-3.771c0.742-0.887,1.83-1.334,3.262-1.347c0.812,0.015,1.443,0.121,1.896,0.326
		c0.45,0.205,0.777,0.433,0.979,0.683c0.203,0.252,0.333,0.45,0.394,0.601h0.17L102.989,54.646z"/>
	<path fill="#FFFFFF" d="M106.091,57.881c0.005,1.479-0.004,2.885-0.022,4.225c-0.02,1.341-0.074,2.525-0.164,3.559
		c0.191-0.011,0.396-0.029,0.615-0.059c0.217-0.024,0.422-0.039,0.614-0.043c0.197,0.004,0.396,0.019,0.599,0.043
		c0.201,0.027,0.399,0.048,0.598,0.059c-0.064-0.688-0.111-1.505-0.137-2.454c-0.023-0.948-0.035-2.057-0.034-3.328
		c-0.001-0.592,0.001-1.27,0.009-2.026c0.005-0.76,0.02-1.494,0.048-2.201c0.026-0.708,0.07-1.281,0.132-1.723
		c-0.205,0.026-0.414,0.051-0.619,0.069c-0.207,0.021-0.403,0.031-0.594,0.031c-0.143-0.003-0.336-0.015-0.582-0.037
		c-0.244-0.022-0.455-0.045-0.632-0.063c0.082,0.823,0.132,1.555,0.149,2.194C106.087,56.764,106.094,57.35,106.091,57.881"/>
	<path fill="#FFFFFF" d="M113.99,59.848c-0.006-0.802,0.126-1.598,0.394-2.385c0.267-0.789,0.697-1.447,1.291-1.975
		c0.595-0.529,1.378-0.805,2.354-0.824c0.992,0.012,1.785,0.254,2.378,0.725c0.593,0.472,1.02,1.097,1.278,1.877
		c0.26,0.779,0.389,1.641,0.383,2.582c0.005,0.836-0.131,1.646-0.401,2.433s-0.703,1.438-1.298,1.952
		c-0.594,0.515-1.374,0.781-2.34,0.802c-0.978-0.019-1.762-0.277-2.354-0.778c-0.594-0.502-1.024-1.146-1.291-1.93
		C114.116,61.541,113.984,60.715,113.99,59.848 M118.081,53.793c-1.168-0.003-2.235,0.217-3.205,0.658
		c-0.967,0.441-1.744,1.125-2.328,2.047c-0.582,0.926-0.883,2.109-0.899,3.555c0.014,1.252,0.302,2.313,0.865,3.184
		c0.562,0.869,1.322,1.529,2.28,1.982c0.957,0.453,2.035,0.682,3.235,0.685c1.928-0.021,3.466-0.589,4.615-1.699
		c1.147-1.11,1.736-2.631,1.766-4.56c-0.02-1.365-0.329-2.479-0.932-3.344c-0.6-0.861-1.379-1.496-2.334-1.902
		C120.188,53.991,119.167,53.789,118.081,53.793"/>
	<path fill="#FFFFFF" d="M127.439,63.1c-0.035,0.385-0.075,0.697-0.121,0.939c-0.043,0.244-0.135,0.574-0.272,0.994
		c0.312,0.17,0.736,0.354,1.278,0.55s1.182,0.304,1.921,0.319c1.039-0.014,1.878-0.208,2.519-0.583
		c0.639-0.374,1.104-0.847,1.396-1.415c0.291-0.568,0.437-1.15,0.43-1.746c0.011-0.256-0.039-0.596-0.147-1.021
		c-0.111-0.425-0.34-0.836-0.688-1.238c-0.231-0.26-0.517-0.471-0.854-0.637s-0.828-0.369-1.472-0.611
		c-0.759-0.269-1.343-0.545-1.755-0.836s-0.621-0.736-0.624-1.336c-0.001-0.521,0.167-0.955,0.503-1.303
		c0.336-0.351,0.842-0.533,1.516-0.548c0.55,0.002,1.027,0.128,1.431,0.379c0.403,0.253,0.674,0.623,0.812,1.11h0.238
		c0.069-0.301,0.135-0.547,0.195-0.741c0.062-0.194,0.172-0.489,0.336-0.883c-0.406-0.194-0.828-0.358-1.266-0.491
		c-0.438-0.134-0.963-0.204-1.574-0.21c-1.023,0.015-1.828,0.199-2.409,0.554c-0.583,0.354-0.993,0.791-1.231,1.312
		s-0.354,1.039-0.345,1.555c-0.015,0.702,0.138,1.292,0.454,1.771c0.318,0.479,0.885,0.897,1.699,1.259
		c0.254,0.106,0.547,0.226,0.881,0.358c0.336,0.133,0.629,0.252,0.883,0.359c0.119,0.042,0.289,0.131,0.508,0.27
		c0.221,0.14,0.422,0.345,0.605,0.617c0.182,0.272,0.279,0.633,0.291,1.08c-0.01,0.629-0.215,1.139-0.614,1.531
		c-0.401,0.393-0.944,0.596-1.629,0.607c-0.503,0.024-0.974-0.088-1.41-0.342s-0.851-0.795-1.243-1.625h-0.238V63.1z"/>
	<path fill="#FFFFFF" d="M6.012,70.637c-0.096,0.017-0.195,0.028-0.3,0.039c-0.105,0.012-0.209,0.018-0.313,0.019
		c-0.104-0.001-0.214-0.007-0.327-0.019c-0.112-0.011-0.225-0.022-0.332-0.039c0.013,0.252,0.024,0.535,0.033,0.851
		c0.008,0.313,0.014,0.598,0.014,0.85v2.566c0,0.049,0,0.127,0.002,0.231c0.002,0.104,0.006,0.193,0.017,0.269
		c0.078,0.481,0.257,0.854,0.54,1.12c0.282,0.266,0.615,0.449,1,0.552c0.386,0.103,0.771,0.151,1.158,0.147
		c0.261,0,0.532-0.031,0.816-0.098c0.283-0.064,0.541-0.169,0.77-0.309c0.311-0.188,0.545-0.436,0.707-0.74
		c0.16-0.307,0.244-0.73,0.254-1.278c0.006-0.329,0.013-0.731,0.021-1.204c0.01-0.473,0.02-0.938,0.031-1.394
		c0.011-0.456,0.025-0.827,0.041-1.11l0.028-0.453c-0.07,0.012-0.144,0.022-0.217,0.035c-0.075,0.014-0.151,0.021-0.226,0.021
		c-0.076-0.002-0.148-0.01-0.22-0.021c-0.072-0.012-0.139-0.023-0.205-0.035c0.037,0.614,0.061,1.23,0.071,1.846
		c0.01,0.617,0.016,1.23,0.014,1.845c0,0.378-0.011,0.662-0.032,0.851c-0.021,0.187-0.052,0.327-0.09,0.424
		c-0.108,0.291-0.302,0.525-0.579,0.701s-0.61,0.266-0.998,0.27c-0.332,0-0.62-0.051-0.866-0.148
		c-0.247-0.098-0.438-0.24-0.577-0.426c-0.09-0.115-0.156-0.25-0.197-0.402c-0.042-0.154-0.069-0.369-0.08-0.646
		c-0.012-0.279-0.016-0.666-0.016-1.159c0-0.411,0.001-0.829,0.004-1.252c0.002-0.426,0.012-0.82,0.025-1.186L6.012,70.637z"/>
	<path fill="#FFFFFF" d="M13.042,74.57c0,0.094-0.002,0.221-0.004,0.379s-0.006,0.318-0.01,0.475
		c-0.004,0.159-0.009,0.283-0.016,0.373l-0.074,1.311c0.055-0.014,0.115-0.026,0.178-0.037c0.063-0.012,0.127-0.018,0.199-0.018
		c0.068,0.002,0.143,0.012,0.223,0.023c0.078,0.016,0.146,0.025,0.201,0.031c-0.021-0.281-0.039-0.5-0.049-0.654
		c-0.012-0.156-0.02-0.293-0.025-0.413c-0.005-0.119-0.008-0.267-0.012-0.442c-0.006-0.326-0.011-0.637-0.016-0.929
		c-0.004-0.292-0.007-0.601-0.009-0.923c-0.003-0.324-0.003-0.695-0.003-1.118c0.348,0.32,0.798,0.75,1.35,1.292
		c0.553,0.54,1.115,1.104,1.689,1.688c0.572,0.584,1.066,1.1,1.48,1.548c0.066-0.011,0.133-0.017,0.198-0.017
		c0.058,0,0.12,0.006,0.188,0.017c0-0.13-0.002-0.287-0.006-0.478c-0.002-0.188-0.004-0.342-0.004-0.455
		c0-0.176,0-0.414-0.002-0.719s-0.004-0.611-0.004-0.923c-0.004-0.312-0.004-0.563-0.004-0.756c0-0.452,0.004-0.847,0.009-1.185
		c0.005-0.34,0.016-0.664,0.03-0.978c0.016-0.312,0.038-0.653,0.065-1.026c-0.056,0.014-0.114,0.027-0.178,0.037
		c-0.062,0.014-0.135,0.02-0.218,0.02c-0.084,0-0.159-0.006-0.225-0.02c-0.064-0.01-0.125-0.023-0.181-0.037
		c0.033,0.389,0.061,0.782,0.081,1.184c0.02,0.4,0.031,0.802,0.032,1.203v2.094c-0.099-0.08-0.182-0.146-0.247-0.201
		c-0.064-0.055-0.141-0.123-0.226-0.203l-1.112-1.094c-0.564-0.55-1.076-1.062-1.532-1.537c-0.458-0.475-0.907-0.956-1.347-1.445
		c-0.038,0.006-0.073,0.01-0.109,0.014c-0.033,0.004-0.07,0.005-0.107,0.005c-0.076,0-0.15-0.007-0.227-0.019
		c0.012,0.879,0.018,1.764,0.02,2.651v1.282H13.042z"/>
	<path fill="#FFFFFF" d="M21.628,72.816c0.002,0.813-0.003,1.591-0.013,2.328c-0.011,0.74-0.042,1.395-0.091,1.963
		c0.105-0.006,0.219-0.017,0.338-0.031c0.122-0.014,0.234-0.021,0.341-0.023c0.108,0.002,0.218,0.012,0.329,0.023
		c0.111,0.016,0.221,0.025,0.33,0.031c-0.036-0.379-0.062-0.83-0.075-1.354c-0.013-0.523-0.02-1.134-0.019-1.835
		c-0.001-0.328,0-0.7,0.004-1.118c0.002-0.419,0.013-0.824,0.027-1.215c0.014-0.391,0.039-0.706,0.072-0.949
		c-0.113,0.014-0.228,0.027-0.342,0.037c-0.113,0.012-0.223,0.02-0.327,0.02c-0.079-0.002-0.186-0.008-0.321-0.021
		c-0.135-0.013-0.251-0.023-0.349-0.035c0.045,0.455,0.073,0.857,0.083,1.211C21.625,72.199,21.63,72.523,21.628,72.816"/>
	<path fill="#FFFFFF" d="M28.319,75.57c-0.11-0.248-0.221-0.497-0.333-0.746c-0.111-0.248-0.218-0.5-0.319-0.754
		c-0.252-0.653-0.451-1.178-0.598-1.571c-0.146-0.392-0.263-0.726-0.354-1.001c-0.089-0.273-0.178-0.561-0.266-0.861
		c-0.117,0.016-0.236,0.028-0.354,0.039c-0.12,0.012-0.234,0.019-0.343,0.019c-0.121,0-0.25-0.003-0.386-0.011
		c-0.136-0.008-0.263-0.022-0.378-0.047c0.031,0.076,0.09,0.211,0.176,0.405c0.084,0.194,0.169,0.39,0.255,0.587
		c0.085,0.197,0.146,0.338,0.182,0.424c0.047,0.111,0.13,0.312,0.247,0.604c0.12,0.292,0.24,0.585,0.36,0.881
		c0.12,0.297,0.208,0.509,0.261,0.638c0.212,0.504,0.373,0.898,0.486,1.185c0.113,0.286,0.213,0.551,0.302,0.797
		c0.088,0.248,0.199,0.563,0.334,0.95c0.062-0.014,0.124-0.026,0.183-0.037c0.059-0.01,0.144-0.018,0.252-0.018
		c0.082,0,0.146,0.008,0.196,0.018c0.049,0.011,0.099,0.023,0.153,0.037c0.416-1.17,0.866-2.327,1.349-3.471
		c0.125-0.295,0.265-0.621,0.421-0.979c0.156-0.359,0.314-0.716,0.476-1.069s0.312-0.67,0.452-0.949
		c-0.102,0.02-0.189,0.032-0.262,0.043c-0.071,0.008-0.135,0.014-0.19,0.014c-0.05,0-0.11-0.006-0.179-0.014
		c-0.068-0.011-0.153-0.023-0.256-0.043c-0.096,0.311-0.223,0.678-0.378,1.106c-0.157,0.431-0.318,0.856-0.482,1.284
		c-0.165,0.428-0.308,0.794-0.429,1.101c-0.121,0.306-0.194,0.491-0.22,0.556L28.319,75.57z"/>
	<path fill="#FFFFFF" d="M34.354,71.221c0.283,0,0.499,0,0.648,0.002c0.149,0,0.269,0.002,0.361,0.004
		c0.091,0.002,0.192,0.009,0.302,0.015l0.887,0.047c-0.014-0.039-0.025-0.088-0.033-0.149c-0.008-0.06-0.013-0.127-0.013-0.199
		c0-0.053,0.005-0.104,0.013-0.148c0.008-0.047,0.02-0.096,0.033-0.152c-0.342,0.012-0.662,0.022-0.96,0.035
		c-0.297,0.014-0.556,0.021-0.776,0.021c-0.264-0.001-0.555-0.008-0.871-0.018c-0.315-0.012-0.594-0.023-0.834-0.039
		c0.021,0.328,0.039,0.713,0.05,1.149c0.013,0.438,0.022,0.847,0.026,1.226c0.006,0.377,0.008,0.64,0.008,0.784
		c0,0.152-0.002,0.361-0.006,0.624c-0.004,0.264-0.008,0.533-0.014,0.811c-0.006,0.274-0.012,0.509-0.019,0.699
		c-0.005,0.196-0.012,0.395-0.021,0.59c-0.008,0.194-0.017,0.392-0.025,0.589c0.301-0.02,0.6-0.033,0.896-0.042
		c0.294-0.01,0.583-0.014,0.866-0.014c0.303,0,0.596,0.004,0.883,0.014c0.287,0.009,0.572,0.022,0.854,0.042
		c-0.018-0.05-0.029-0.104-0.037-0.155c-0.006-0.053-0.008-0.115-0.008-0.184c0-0.065,0.002-0.123,0.008-0.174
		c0.008-0.05,0.02-0.097,0.037-0.138c-0.275,0.013-0.57,0.022-0.887,0.033c-0.314,0.01-0.599,0.019-0.853,0.024
		c-0.253,0.004-0.426,0.008-0.516,0.008v-2.559c0.218,0,0.437,0.002,0.655,0.006c0.221,0.004,0.439,0.008,0.656,0.014
		c0.118,0.005,0.238,0.012,0.359,0.021c0.122,0.009,0.244,0.019,0.368,0.027c-0.015-0.034-0.026-0.08-0.034-0.136
		c-0.008-0.058-0.012-0.118-0.013-0.186c0.001-0.07,0.005-0.131,0.013-0.185c0.008-0.052,0.02-0.104,0.034-0.155
		c-0.175,0.02-0.389,0.033-0.644,0.043c-0.256,0.01-0.512,0.016-0.766,0.02c-0.253,0.002-0.463,0.004-0.63,0.004v-2.219H34.354z"/>
	<path fill="#FFFFFF" d="M40.462,71.146c0.078-0.008,0.186-0.017,0.32-0.027c0.134-0.012,0.252-0.02,0.35-0.021
		c0.156,0,0.311,0.016,0.459,0.049c0.151,0.033,0.289,0.097,0.418,0.188c0.162,0.123,0.27,0.269,0.323,0.435
		c0.054,0.166,0.078,0.349,0.073,0.547c0.003,0.209-0.04,0.412-0.125,0.609c-0.084,0.198-0.223,0.361-0.414,0.492
		c-0.188,0.129-0.44,0.195-0.754,0.201c-0.123,0-0.24-0.005-0.35-0.012c-0.11-0.006-0.211-0.012-0.301-0.018L40.462,71.146
		L40.462,71.146z M42.009,73.9c0.445-0.078,0.826-0.258,1.144-0.539c0.318-0.282,0.483-0.686,0.498-1.205
		c0-0.201-0.037-0.393-0.11-0.576c-0.074-0.182-0.182-0.342-0.323-0.482c-0.2-0.187-0.421-0.312-0.663-0.373
		c-0.24-0.063-0.514-0.092-0.817-0.088c-0.083,0.002-0.231,0.004-0.446,0.014c-0.214,0.007-0.43,0.015-0.647,0.021
		c-0.217,0.008-0.373,0.012-0.464,0.012c-0.237,0-0.427-0.006-0.57-0.016c-0.145-0.01-0.269-0.02-0.373-0.031
		c0.021,0.394,0.037,0.705,0.047,0.938c0.01,0.232,0.015,0.465,0.018,0.699c0.002,0.232,0.002,0.552,0.002,0.949
		c0,0.446,0,0.816-0.002,1.113c-0.003,0.295-0.007,0.567-0.012,0.814c-0.007,0.248-0.015,0.521-0.025,0.822
		c-0.012,0.301-0.027,0.68-0.045,1.135c0.104-0.014,0.21-0.027,0.32-0.038c0.111-0.011,0.221-0.017,0.33-0.017
		c0.117,0,0.228,0.008,0.333,0.021c0.104,0.012,0.204,0.022,0.298,0.032c0-0.092-0.004-0.26-0.01-0.498
		c-0.007-0.237-0.013-0.479-0.02-0.719c-0.004-0.242-0.008-0.414-0.008-0.52v-1.336h0.227c0.258,0.361,0.523,0.74,0.799,1.135
		c0.273,0.395,0.532,0.781,0.777,1.157c0.073,0.114,0.155,0.244,0.245,0.392c0.09,0.146,0.171,0.277,0.245,0.391
		c0.133-0.018,0.25-0.03,0.35-0.041c0.101-0.01,0.239-0.014,0.414-0.014c0.166,0,0.316,0.006,0.448,0.018
		c0.132,0.011,0.263,0.023,0.392,0.037c-0.193-0.239-0.363-0.457-0.512-0.646c-0.148-0.191-0.306-0.398-0.471-0.624
		c-0.164-0.225-0.369-0.508-0.611-0.851c-0.073-0.104-0.154-0.223-0.246-0.354c-0.088-0.132-0.172-0.25-0.244-0.354L42.009,73.9z"/>
	<path fill="#FFFFFF" d="M46.356,75.693c-0.02,0.212-0.042,0.385-0.066,0.52s-0.074,0.316-0.15,0.547
		c0.171,0.096,0.404,0.195,0.704,0.305c0.299,0.107,0.651,0.166,1.06,0.177c0.572-0.009,1.036-0.115,1.389-0.321
		c0.352-0.207,0.609-0.468,0.77-0.779c0.162-0.314,0.24-0.637,0.237-0.965c0.006-0.141-0.022-0.326-0.083-0.562
		c-0.06-0.233-0.186-0.462-0.379-0.683c-0.127-0.145-0.283-0.262-0.471-0.353c-0.188-0.092-0.457-0.204-0.812-0.338
		c-0.417-0.146-0.74-0.302-0.967-0.461c-0.227-0.16-0.343-0.406-0.345-0.736c0-0.287,0.092-0.526,0.277-0.72
		c0.185-0.192,0.464-0.292,0.837-0.301c0.303,0,0.564,0.07,0.787,0.209s0.373,0.343,0.448,0.611h0.132
		c0.038-0.164,0.073-0.302,0.107-0.408c0.034-0.107,0.096-0.271,0.186-0.487c-0.225-0.106-0.457-0.195-0.698-0.271
		c-0.241-0.074-0.53-0.113-0.868-0.115c-0.564,0.009-1.008,0.109-1.329,0.306c-0.32,0.194-0.547,0.435-0.679,0.723
		c-0.131,0.287-0.195,0.573-0.189,0.858c-0.008,0.388,0.076,0.712,0.25,0.977c0.175,0.264,0.487,0.495,0.938,0.694
		c0.139,0.06,0.302,0.124,0.486,0.196c0.184,0.074,0.346,0.14,0.486,0.197c0.065,0.023,0.159,0.074,0.279,0.15
		c0.121,0.076,0.232,0.189,0.334,0.34c0.102,0.151,0.154,0.35,0.16,0.596c-0.005,0.348-0.117,0.629-0.338,0.845
		c-0.221,0.218-0.521,0.329-0.898,0.336c-0.277,0.014-0.537-0.05-0.777-0.189c-0.241-0.139-0.47-0.438-0.686-0.896h-0.132V75.693z"
		/>
	<path fill="#FFFFFF" d="M53.049,72.816c0.001,0.813-0.003,1.591-0.013,2.328c-0.012,0.74-0.041,1.395-0.092,1.963
		c0.105-0.006,0.219-0.017,0.34-0.031c0.119-0.014,0.233-0.021,0.34-0.023c0.107,0.002,0.217,0.012,0.328,0.023
		c0.112,0.016,0.222,0.025,0.33,0.031c-0.036-0.379-0.061-0.83-0.074-1.354c-0.014-0.523-0.02-1.134-0.02-1.835
		c0-0.328,0-0.7,0.004-1.118c0.003-0.419,0.013-0.824,0.027-1.215c0.014-0.391,0.039-0.706,0.073-0.949
		c-0.114,0.014-0.228,0.027-0.342,0.037c-0.114,0.012-0.224,0.02-0.327,0.02c-0.08-0.002-0.186-0.008-0.321-0.021
		c-0.135-0.013-0.252-0.023-0.349-0.035c0.045,0.455,0.072,0.857,0.082,1.211C53.046,72.199,53.05,72.523,53.049,72.816"/>
	<path fill="#FFFFFF" d="M63.306,73.684c0-0.494-0.09-0.945-0.27-1.354c-0.181-0.409-0.451-0.756-0.814-1.043
		c-0.4-0.295-0.829-0.479-1.285-0.555c-0.458-0.074-0.891-0.106-1.301-0.096c-0.284,0.002-0.562,0.01-0.838,0.022
		c-0.273,0.014-0.539,0.021-0.795,0.022c-0.127,0-0.256-0.006-0.387-0.016c-0.129-0.01-0.258-0.02-0.385-0.031
		c0.008,0.207,0.016,0.413,0.022,0.617c0.007,0.203,0.015,0.407,0.024,0.609c0.013,0.297,0.019,0.592,0.02,0.887
		c0,0.295-0.001,0.59-0.002,0.887c0,0.368,0,0.653,0,0.859s-0.002,0.373-0.002,0.499c-0.002,0.127-0.004,0.256-0.006,0.388
		l-0.057,1.727c0.145-0.012,0.293-0.021,0.442-0.03c0.148-0.011,0.296-0.015,0.442-0.017c0.289,0.002,0.578,0.011,0.868,0.023
		c0.29,0.014,0.58,0.021,0.868,0.021c0.383,0.006,0.738-0.031,1.067-0.109c0.328-0.076,0.655-0.219,0.981-0.426
		c0.445-0.285,0.791-0.67,1.033-1.158C63.179,74.928,63.302,74.352,63.306,73.684 M58.456,72.324c0-0.188,0.006-0.379,0.017-0.57
		c0.011-0.191,0.021-0.382,0.03-0.57c0.161-0.015,0.322-0.024,0.486-0.035c0.162-0.008,0.324-0.012,0.486-0.012
		c0.648,0.01,1.159,0.144,1.531,0.398c0.371,0.258,0.633,0.583,0.785,0.977c0.154,0.393,0.228,0.795,0.223,1.211
		c-0.008,0.603-0.094,1.094-0.26,1.475c-0.168,0.38-0.375,0.673-0.621,0.88c-0.246,0.204-0.491,0.346-0.736,0.423
		c-0.245,0.078-0.448,0.114-0.611,0.11c-0.086-0.001-0.217-0.005-0.391-0.011c-0.175-0.006-0.348-0.014-0.52-0.021
		s-0.297-0.014-0.373-0.016c-0.01-0.219-0.02-0.438-0.03-0.656c-0.011-0.219-0.017-0.438-0.017-0.656L58.456,72.324L58.456,72.324z"
		/>
	<path fill="#FFFFFF" d="M69.548,77.107c0.087-0.006,0.189-0.017,0.312-0.031c0.123-0.014,0.252-0.021,0.385-0.023
		c0.138,0.002,0.275,0.012,0.414,0.023c0.139,0.016,0.245,0.025,0.322,0.031c-0.144-0.312-0.303-0.659-0.475-1.043
		c-0.17-0.383-0.338-0.762-0.502-1.135c-0.164-0.375-0.307-0.701-0.43-0.98c-0.176-0.408-0.389-0.913-0.637-1.516
		c-0.246-0.604-0.488-1.233-0.722-1.892c-0.051,0.015-0.102,0.024-0.15,0.034c-0.05,0.007-0.1,0.013-0.151,0.013
		c-0.057,0-0.108-0.006-0.159-0.013c-0.05-0.01-0.101-0.02-0.151-0.034c-0.112,0.377-0.309,0.896-0.592,1.558
		c-0.282,0.66-0.66,1.52-1.137,2.576l-1.093,2.432c0.065-0.01,0.133-0.021,0.202-0.033c0.068-0.014,0.143-0.02,0.223-0.021
		c0.077,0.002,0.156,0.008,0.236,0.021c0.082,0.012,0.153,0.023,0.217,0.033c0.078-0.274,0.186-0.592,0.32-0.952
		c0.134-0.36,0.279-0.726,0.434-1.095c0.189-0.01,0.377-0.019,0.566-0.025c0.188-0.007,0.377-0.012,0.566-0.012
		c0.202,0,0.402,0.005,0.603,0.012c0.2,0.008,0.402,0.016,0.604,0.025l0.396,1L69.548,77.107z M68.481,74.477
		c-0.146,0.01-0.291,0.019-0.435,0.024c-0.144,0.009-0.288,0.013-0.434,0.013c-0.165,0-0.329-0.007-0.489-0.016
		c-0.164-0.009-0.327-0.018-0.492-0.021l0.963-2.32L68.481,74.477z"/>
	<path fill="#FFFFFF" d="M79.163,73.684c0-0.494-0.09-0.945-0.271-1.354c-0.182-0.409-0.451-0.756-0.814-1.043
		c-0.398-0.295-0.827-0.479-1.285-0.555c-0.457-0.074-0.893-0.106-1.301-0.096c-0.283,0.002-0.562,0.01-0.838,0.022
		c-0.274,0.014-0.541,0.021-0.795,0.022c-0.129,0-0.256-0.006-0.387-0.016c-0.13-0.01-0.258-0.02-0.387-0.031
		c0.01,0.207,0.018,0.413,0.023,0.617c0.007,0.203,0.016,0.407,0.023,0.609c0.014,0.297,0.02,0.592,0.021,0.887
		c0,0.295-0.002,0.59-0.002,0.887c0,0.368,0,0.653,0,0.859s-0.002,0.373-0.002,0.499c-0.002,0.127-0.006,0.256-0.008,0.388
		l-0.058,1.727c0.146-0.012,0.295-0.021,0.442-0.03c0.149-0.011,0.298-0.015,0.443-0.017c0.287,0.002,0.578,0.011,0.867,0.023
		c0.291,0.014,0.58,0.021,0.869,0.021c0.383,0.006,0.736-0.031,1.066-0.109c0.328-0.076,0.656-0.219,0.981-0.426
		c0.445-0.285,0.791-0.67,1.034-1.158C79.036,74.928,79.159,74.352,79.163,73.684 M74.312,72.324c0-0.188,0.006-0.379,0.016-0.57
		c0.012-0.191,0.021-0.382,0.031-0.57c0.16-0.015,0.322-0.024,0.486-0.035c0.162-0.008,0.324-0.012,0.485-0.012
		c0.649,0.01,1.159,0.144,1.53,0.398c0.371,0.258,0.633,0.583,0.787,0.977c0.152,0.393,0.227,0.795,0.222,1.211
		c-0.007,0.603-0.093,1.094-0.261,1.475c-0.168,0.38-0.371,0.673-0.619,0.88c-0.247,0.204-0.492,0.346-0.736,0.423
		c-0.245,0.078-0.449,0.114-0.611,0.11c-0.086-0.001-0.217-0.005-0.393-0.011c-0.174-0.006-0.348-0.014-0.518-0.021
		c-0.172-0.008-0.297-0.014-0.373-0.016c-0.012-0.219-0.021-0.438-0.032-0.656c-0.009-0.219-0.015-0.438-0.015-0.656V72.324
		L74.312,72.324z"/>
	<path fill="#FFFFFF" d="M91.67,73.684c0-0.494-0.089-0.945-0.271-1.354c-0.18-0.409-0.449-0.756-0.813-1.043
		c-0.399-0.295-0.828-0.479-1.285-0.555c-0.457-0.074-0.892-0.106-1.299-0.096c-0.285,0.002-0.563,0.01-0.839,0.022
		c-0.273,0.014-0.539,0.021-0.794,0.022c-0.13,0-0.259-0.006-0.388-0.016c-0.131-0.01-0.26-0.02-0.387-0.031
		c0.01,0.207,0.018,0.413,0.023,0.617c0.006,0.203,0.014,0.407,0.023,0.609c0.014,0.297,0.02,0.592,0.02,0.887s0,0.59-0.001,0.887
		c0,0.368,0,0.653,0,0.859s-0.001,0.373-0.003,0.499c-0.002,0.127-0.002,0.256-0.006,0.388l-0.058,1.727
		c0.146-0.012,0.294-0.021,0.443-0.03c0.147-0.011,0.296-0.015,0.442-0.017c0.287,0.002,0.576,0.011,0.867,0.023
		c0.29,0.014,0.58,0.021,0.868,0.021c0.384,0.006,0.738-0.031,1.065-0.109c0.33-0.076,0.656-0.219,0.982-0.426
		c0.446-0.285,0.791-0.67,1.034-1.158C91.543,74.928,91.667,74.352,91.67,73.684 M86.818,72.324c0.002-0.188,0.009-0.379,0.018-0.57
		c0.012-0.191,0.021-0.382,0.032-0.57c0.159-0.015,0.321-0.024,0.485-0.035c0.162-0.008,0.323-0.012,0.484-0.012
		c0.65,0.01,1.16,0.144,1.531,0.398c0.371,0.258,0.633,0.583,0.785,0.977c0.154,0.393,0.229,0.795,0.223,1.211
		c-0.006,0.603-0.093,1.094-0.26,1.475c-0.168,0.38-0.373,0.673-0.621,0.88c-0.246,0.204-0.49,0.346-0.735,0.423
		c-0.243,0.078-0.448,0.114-0.61,0.11c-0.088-0.001-0.217-0.005-0.392-0.011c-0.176-0.006-0.348-0.014-0.521-0.021
		c-0.172-0.008-0.295-0.014-0.371-0.016c-0.012-0.219-0.021-0.438-0.032-0.656c-0.009-0.219-0.017-0.438-0.017-0.656V72.324
		L86.818,72.324z"/>
	<path fill="#FFFFFF" d="M95.532,71.221c0.282,0,0.499,0,0.649,0.002c0.147,0,0.269,0.002,0.359,0.004s0.191,0.009,0.303,0.015
		l0.889,0.047c-0.017-0.039-0.026-0.088-0.034-0.149c-0.009-0.06-0.013-0.127-0.015-0.199c0.002-0.053,0.006-0.104,0.015-0.148
		c0.008-0.047,0.019-0.096,0.034-0.152c-0.344,0.012-0.664,0.022-0.961,0.035c-0.299,0.014-0.557,0.021-0.775,0.021
		c-0.268-0.001-0.557-0.008-0.872-0.018c-0.315-0.012-0.595-0.023-0.836-0.039c0.022,0.328,0.039,0.713,0.052,1.149
		c0.014,0.438,0.021,0.847,0.026,1.226c0.006,0.377,0.008,0.64,0.008,0.784c0,0.152-0.002,0.361-0.006,0.624
		c-0.004,0.264-0.009,0.533-0.015,0.811c-0.006,0.274-0.012,0.509-0.019,0.699c-0.005,0.196-0.011,0.395-0.021,0.59
		c-0.008,0.194-0.017,0.392-0.027,0.589c0.303-0.02,0.6-0.033,0.896-0.042c0.295-0.01,0.584-0.014,0.866-0.014
		c0.302,0,0.597,0.004,0.884,0.014c0.287,0.009,0.571,0.022,0.854,0.042c-0.02-0.05-0.031-0.104-0.037-0.155s-0.01-0.115-0.01-0.184
		c0-0.065,0.004-0.123,0.01-0.174c0.006-0.05,0.02-0.097,0.037-0.138c-0.275,0.013-0.572,0.022-0.887,0.033
		c-0.314,0.01-0.6,0.019-0.853,0.024c-0.254,0.004-0.426,0.008-0.518,0.008v-2.559c0.219,0,0.438,0.002,0.655,0.006
		c0.219,0.004,0.438,0.008,0.656,0.014c0.117,0.005,0.237,0.012,0.359,0.021s0.244,0.019,0.367,0.027
		c-0.017-0.034-0.025-0.08-0.033-0.136c-0.008-0.058-0.012-0.118-0.014-0.186c0.002-0.07,0.006-0.131,0.014-0.185
		c0.008-0.052,0.018-0.104,0.033-0.155c-0.174,0.02-0.389,0.033-0.646,0.043c-0.254,0.01-0.51,0.016-0.763,0.02
		c-0.253,0.002-0.465,0.004-0.633,0.004v-2.219H95.532z"/>
	<path fill="#FFFFFF" d="M109.768,71.032c-0.377-0.167-0.74-0.288-1.099-0.362c-0.356-0.072-0.728-0.109-1.11-0.107
		c-0.838,0.007-1.529,0.162-2.074,0.463c-0.543,0.304-0.947,0.712-1.211,1.224c-0.265,0.515-0.396,1.09-0.394,1.729
		c0.006,0.709,0.16,1.306,0.463,1.789c0.302,0.484,0.706,0.852,1.214,1.1c0.506,0.25,1.069,0.374,1.689,0.375
		c0.431,0,0.847-0.049,1.247-0.148c0.399-0.099,0.78-0.246,1.141-0.445l0.103-0.934l-0.103-0.064
		c-0.204,0.263-0.477,0.505-0.813,0.726c-0.338,0.22-0.795,0.336-1.366,0.351c-0.425-0.008-0.774-0.097-1.048-0.264
		c-0.273-0.168-0.492-0.365-0.658-0.596c-0.277-0.396-0.443-0.78-0.504-1.148c-0.061-0.369-0.086-0.646-0.072-0.824
		c0.002-0.896,0.207-1.59,0.617-2.078c0.408-0.489,1.009-0.736,1.798-0.742c0.448,0.008,0.796,0.066,1.046,0.18
		c0.25,0.112,0.43,0.238,0.541,0.377s0.184,0.247,0.215,0.33h0.096L109.768,71.032z"/>
	<path fill="#FFFFFF" d="M116.537,75.448c0,0.128-0.008,0.309-0.018,0.548c-0.012,0.236-0.022,0.465-0.035,0.684
		c-0.012,0.219-0.02,0.361-0.022,0.428c0.103-0.01,0.207-0.021,0.32-0.032c0.112-0.015,0.219-0.021,0.321-0.021
		c0.111,0.002,0.228,0.008,0.342,0.021c0.115,0.012,0.23,0.022,0.345,0.032c-0.045-0.342-0.072-0.704-0.082-1.088
		c-0.009-0.383-0.015-0.762-0.013-1.138c0-0.253,0-0.565,0.005-0.94c0.002-0.372,0.008-0.768,0.016-1.182
		c0.011-0.414,0.023-0.81,0.039-1.184c0.021-0.373,0.043-0.688,0.073-0.938c-0.096,0.01-0.206,0.02-0.333,0.032
		s-0.236,0.021-0.326,0.021c-0.108,0-0.228-0.008-0.354-0.021c-0.129-0.014-0.238-0.022-0.334-0.032
		c0.014,0.227,0.022,0.399,0.028,0.52c0.009,0.121,0.013,0.219,0.015,0.295c0.004,0.074,0.004,0.157,0.004,0.25
		c0.004,0.09,0.008,0.246,0.011,0.471s0.005,0.449,0.006,0.676c0.002,0.226,0.004,0.385,0.004,0.477
		c-0.288,0.011-0.573,0.02-0.858,0.025c-0.285,0.008-0.571,0.013-0.86,0.013c-0.233,0-0.474-0.004-0.712-0.013
		c-0.237-0.008-0.477-0.016-0.713-0.025c0-0.577,0.005-1.033,0.013-1.364c0.008-0.332,0.019-0.594,0.031-0.788
		c0.012-0.193,0.024-0.371,0.042-0.533c-0.069,0.01-0.172,0.02-0.305,0.032c-0.134,0.013-0.248,0.021-0.348,0.021
		c-0.082-0.001-0.189-0.009-0.324-0.021c-0.135-0.014-0.252-0.022-0.354-0.032c0.033,0.36,0.057,0.723,0.07,1.084
		c0.017,0.36,0.023,0.727,0.023,1.094c0.001,0.717-0.004,1.432-0.015,2.146s-0.035,1.431-0.07,2.146
		c0.113-0.011,0.224-0.021,0.334-0.033c0.111-0.015,0.224-0.021,0.334-0.021c0.136,0.002,0.259,0.01,0.373,0.022
		c0.113,0.015,0.207,0.024,0.278,0.031c-0.018-0.191-0.03-0.384-0.043-0.572c-0.014-0.188-0.022-0.415-0.03-0.674
		c-0.008-0.261-0.013-0.591-0.013-0.99v-0.942c0.27-0.009,0.537-0.019,0.808-0.023c0.271-0.01,0.538-0.012,0.808-0.012
		c0.256,0,0.51,0.002,0.766,0.012c0.254,0.006,0.51,0.016,0.765,0.023L116.537,75.448z"/>
	<path fill="#FFFFFF" d="M120.83,72.816c0.003,0.813-0.003,1.591-0.014,2.328c-0.012,0.74-0.041,1.395-0.092,1.963
		c0.107-0.006,0.221-0.017,0.34-0.031c0.121-0.014,0.233-0.021,0.34-0.023c0.109,0.002,0.22,0.012,0.33,0.023
		c0.111,0.016,0.222,0.025,0.33,0.031c-0.037-0.379-0.062-0.83-0.075-1.354c-0.015-0.523-0.021-1.134-0.021-1.835
		c0-0.328,0.002-0.7,0.004-1.118c0.004-0.419,0.012-0.824,0.027-1.215s0.039-0.706,0.073-0.949
		c-0.114,0.014-0.228,0.027-0.341,0.037c-0.115,0.012-0.226,0.02-0.33,0.02c-0.078-0.002-0.185-0.008-0.319-0.021
		c-0.135-0.013-0.251-0.023-0.349-0.035c0.045,0.455,0.072,0.857,0.082,1.211C120.827,72.199,120.833,72.523,120.83,72.816"/>
	<path fill="#FFFFFF" d="M125.105,74.533c0,0.07-0.004,0.23-0.01,0.48c-0.008,0.252-0.015,0.53-0.022,0.838
		c-0.011,0.309-0.017,0.584-0.023,0.824c-0.006,0.239-0.009,0.385-0.01,0.432c0.338-0.02,0.649-0.031,0.933-0.041
		s0.572-0.014,0.868-0.014c0.271,0.002,0.572,0.008,0.912,0.021c0.34,0.012,0.638,0.022,0.892,0.032
		c-0.019-0.058-0.03-0.107-0.039-0.151c-0.004-0.044-0.006-0.101-0.006-0.167c0-0.104,0.002-0.182,0.012-0.23
		c0.008-0.05,0.019-0.099,0.033-0.146c-0.197,0.026-0.449,0.048-0.754,0.06c-0.306,0.014-0.597,0.021-0.869,0.021
		c-0.275,0.004-0.463,0.004-0.566,0.004h-0.169c-0.007-0.26-0.013-0.541-0.019-0.844c-0.007-0.301-0.011-0.617-0.011-0.949
		c0-0.715,0.007-1.396,0.022-2.043c0.015-0.646,0.039-1.32,0.07-2.021c-0.115,0.019-0.225,0.031-0.33,0.041
		c-0.104,0.008-0.213,0.015-0.33,0.015c-0.114,0-0.224-0.005-0.324-0.011c-0.102-0.008-0.209-0.022-0.325-0.045
		c0.004,0.066,0.008,0.186,0.012,0.354c0.005,0.167,0.011,0.337,0.015,0.506c0.006,0.171,0.009,0.293,0.012,0.366
		c0.01,0.272,0.018,0.485,0.021,0.632c0.002,0.146,0.006,0.271,0.006,0.37c0.002,0.099,0.002,0.216,0.002,0.347v1.32H125.105z"/>
	<path fill="#FFFFFF" d="M132.335,71.221c0.283,0,0.499,0,0.649,0.002c0.147,0,0.269,0.002,0.359,0.004
		c0.092,0.002,0.193,0.009,0.303,0.015l0.888,0.047c-0.017-0.039-0.025-0.088-0.033-0.149c-0.008-0.06-0.013-0.127-0.015-0.199
		c0.002-0.053,0.007-0.104,0.015-0.148c0.008-0.047,0.019-0.096,0.033-0.152c-0.343,0.012-0.662,0.022-0.961,0.035
		c-0.298,0.014-0.558,0.021-0.775,0.021c-0.266-0.001-0.555-0.008-0.871-0.018c-0.315-0.012-0.595-0.023-0.836-0.039
		c0.021,0.328,0.04,0.713,0.052,1.149c0.015,0.438,0.021,0.847,0.026,1.226c0.005,0.377,0.008,0.64,0.008,0.784
		c0,0.152-0.003,0.361-0.006,0.624c-0.004,0.264-0.009,0.533-0.014,0.811c-0.007,0.274-0.013,0.509-0.019,0.699
		c-0.007,0.196-0.013,0.395-0.021,0.59c-0.008,0.194-0.018,0.392-0.027,0.589c0.303-0.02,0.602-0.033,0.896-0.042
		c0.296-0.01,0.584-0.014,0.867-0.014c0.301,0,0.597,0.004,0.883,0.014c0.287,0.009,0.572,0.022,0.854,0.042
		c-0.019-0.05-0.03-0.104-0.036-0.155c-0.008-0.053-0.011-0.115-0.011-0.184c0-0.065,0.003-0.123,0.011-0.174
		c0.006-0.05,0.019-0.097,0.036-0.138c-0.276,0.013-0.571,0.022-0.887,0.033c-0.315,0.01-0.601,0.019-0.853,0.024
		c-0.254,0.004-0.426,0.008-0.518,0.008v-2.559c0.219,0,0.438,0.002,0.656,0.006c0.22,0.004,0.438,0.008,0.654,0.014
		c0.119,0.005,0.238,0.012,0.36,0.021c0.121,0.009,0.244,0.019,0.367,0.027c-0.017-0.034-0.024-0.08-0.034-0.136
		c-0.007-0.058-0.012-0.118-0.013-0.186c0.001-0.07,0.006-0.131,0.013-0.185c0.01-0.052,0.02-0.104,0.034-0.155
		c-0.174,0.02-0.39,0.033-0.646,0.043c-0.254,0.01-0.51,0.016-0.762,0.02c-0.254,0.002-0.465,0.004-0.633,0.004v-2.219H132.335z"/>
	<path fill="#FFFFFF" d="M40.403,27.856c0.256,0,0.494,0.004,0.717,0.013c0.223,0.01,0.462,0.021,0.72,0.039
		c-0.015-0.047-0.022-0.084-0.024-0.115c-0.004-0.031-0.004-0.056-0.004-0.077c0-0.034,0.002-0.071,0.008-0.105
		c0.004-0.037,0.012-0.074,0.021-0.115c-0.163,0.006-0.342,0.014-0.534,0.021c-0.191,0.009-0.383,0.013-0.572,0.013
		c-0.102,0-0.225-0.002-0.371-0.006c-0.146-0.004-0.286-0.008-0.423-0.014c-0.137-0.006-0.241-0.01-0.313-0.014
		c0.015,0.279,0.027,0.581,0.039,0.902c0.013,0.324,0.019,0.671,0.02,1.041c0,0.23-0.001,0.422-0.003,0.58
		c-0.001,0.156-0.003,0.303-0.006,0.438c-0.005,0.135-0.009,0.284-0.017,0.448c-0.007,0.163-0.016,0.367-0.027,0.608
		c0.055-0.013,0.11-0.021,0.17-0.026c0.06-0.005,0.129-0.008,0.211-0.008c0.08-0.002,0.154,0.001,0.221,0.006
		c0.067,0.004,0.134,0.014,0.199,0.028c-0.008-0.059-0.013-0.108-0.014-0.149c-0.004-0.04-0.007-0.092-0.009-0.156
		c-0.002-0.057-0.003-0.113-0.003-0.171c-0.002-0.058-0.002-0.138-0.004-0.241c0-0.104,0-0.254,0-0.449v-0.785
		c0.205,0,0.362,0,0.473,0.002c0.109,0,0.203,0,0.279,0.002c0.076,0.002,0.166,0.005,0.269,0.008l0.322,0.012
		c-0.009-0.038-0.016-0.072-0.021-0.103c-0.006-0.032-0.008-0.063-0.008-0.097c0-0.068,0.01-0.133,0.028-0.191
		c-0.116,0.006-0.248,0.012-0.395,0.018c-0.146,0.007-0.327,0.012-0.544,0.012h-0.404L40.403,27.856L40.403,27.856z"/>
	<path fill="#FFFFFF" d="M54.428,31.513c0.054-0.005,0.119-0.011,0.194-0.02c0.076-0.009,0.156-0.014,0.24-0.015
		c0.084,0.001,0.17,0.006,0.257,0.015c0.085,0.009,0.151,0.015,0.199,0.02c-0.09-0.193-0.188-0.411-0.294-0.647
		c-0.107-0.239-0.211-0.475-0.312-0.707c-0.102-0.231-0.19-0.434-0.268-0.607c-0.109-0.254-0.24-0.568-0.395-0.941
		c-0.154-0.375-0.303-0.766-0.447-1.174c-0.033,0.009-0.064,0.016-0.096,0.021c-0.029,0.005-0.061,0.009-0.094,0.009
		c-0.033,0-0.066-0.004-0.098-0.009c-0.032-0.005-0.062-0.012-0.094-0.021c-0.07,0.234-0.193,0.557-0.367,0.967
		c-0.176,0.41-0.411,0.943-0.705,1.598l-0.678,1.511c0.039-0.007,0.082-0.015,0.125-0.022c0.043-0.007,0.088-0.012,0.138-0.012
		c0.048,0,0.098,0.005,0.147,0.012c0.051,0.008,0.095,0.016,0.135,0.022c0.049-0.171,0.115-0.368,0.199-0.593
		c0.083-0.223,0.174-0.449,0.27-0.679c0.117-0.007,0.233-0.013,0.352-0.017c0.117-0.004,0.234-0.006,0.35-0.006
		c0.127,0,0.252,0.002,0.375,0.006c0.125,0.004,0.25,0.01,0.376,0.017l0.246,0.62L54.428,31.513z M53.767,29.879
		c-0.092,0.006-0.182,0.012-0.27,0.016c-0.09,0.004-0.18,0.007-0.271,0.007c-0.103-0.001-0.203-0.004-0.304-0.01
		c-0.102-0.005-0.203-0.01-0.307-0.013l0.6-1.442L53.767,29.879z"/>
	<path fill="#FFFFFF" d="M68.784,27.739c-0.232-0.104-0.459-0.18-0.682-0.226c-0.222-0.046-0.452-0.068-0.689-0.067
		c-0.521,0.005-0.951,0.101-1.287,0.288c-0.338,0.189-0.59,0.441-0.754,0.76c-0.163,0.318-0.244,0.676-0.244,1.073
		c0.005,0.44,0.102,0.812,0.289,1.111c0.188,0.302,0.438,0.528,0.752,0.683c0.314,0.155,0.665,0.232,1.051,0.232
		c0.267,0,0.525-0.03,0.773-0.092c0.25-0.061,0.484-0.152,0.709-0.275l0.064-0.58l-0.064-0.042c-0.127,0.163-0.296,0.314-0.506,0.45
		c-0.211,0.138-0.492,0.211-0.848,0.218c-0.264-0.005-0.481-0.06-0.652-0.163c-0.169-0.104-0.306-0.228-0.408-0.37
		c-0.172-0.246-0.275-0.483-0.314-0.713c-0.037-0.23-0.051-0.401-0.043-0.513c0.001-0.557,0.129-0.986,0.383-1.291
		c0.254-0.303,0.627-0.456,1.117-0.459c0.278,0.004,0.494,0.039,0.648,0.11c0.155,0.069,0.268,0.147,0.336,0.233
		c0.07,0.086,0.114,0.155,0.134,0.206h0.06L68.784,27.739z"/>
	<path fill="#FFFFFF" d="M79.914,27.494c-0.061,0.01-0.12,0.017-0.188,0.023c-0.063,0.006-0.129,0.01-0.192,0.01
		c-0.066,0-0.134-0.004-0.203-0.01c-0.07-0.007-0.142-0.014-0.208-0.023c0.009,0.156,0.018,0.332,0.021,0.527
		s0.006,0.371,0.006,0.527v1.593c0,0.032,0,0.079,0.002,0.145s0.007,0.121,0.013,0.167c0.048,0.299,0.16,0.531,0.336,0.695
		c0.174,0.165,0.381,0.279,0.62,0.344c0.238,0.062,0.479,0.094,0.72,0.09c0.162,0.001,0.331-0.02,0.509-0.059
		c0.176-0.041,0.334-0.105,0.477-0.192c0.193-0.116,0.34-0.27,0.438-0.46c0.102-0.189,0.153-0.454,0.157-0.793
		c0.005-0.206,0.011-0.455,0.017-0.748c0.006-0.295,0.012-0.582,0.018-0.865c0.008-0.283,0.018-0.514,0.025-0.691l0.019-0.279
		c-0.044,0.006-0.09,0.014-0.136,0.021c-0.047,0.009-0.094,0.013-0.139,0.013c-0.048,0-0.094-0.004-0.138-0.013
		c-0.043-0.007-0.086-0.015-0.128-0.021c0.023,0.381,0.038,0.762,0.045,1.145c0.007,0.383,0.01,0.765,0.008,1.146
		c0,0.234-0.007,0.41-0.02,0.527c-0.014,0.115-0.033,0.203-0.057,0.263c-0.067,0.181-0.188,0.327-0.358,0.437
		c-0.173,0.108-0.379,0.164-0.619,0.167c-0.208-0.001-0.386-0.031-0.539-0.093c-0.151-0.062-0.272-0.148-0.356-0.264
		c-0.058-0.072-0.099-0.156-0.123-0.25c-0.027-0.096-0.043-0.23-0.051-0.403c-0.009-0.173-0.011-0.413-0.009-0.718
		c-0.002-0.256,0-0.516,0-0.778c0.003-0.263,0.009-0.507,0.017-0.733L79.914,27.494z"/>
	<path fill="#FFFFFF" d="M93.182,29.913c0,0.044-0.002,0.144-0.007,0.3c-0.004,0.154-0.01,0.328-0.015,0.52
		c-0.006,0.192-0.01,0.361-0.016,0.51c-0.004,0.15-0.006,0.24-0.006,0.271c0.211-0.012,0.402-0.021,0.578-0.026
		c0.176-0.005,0.355-0.008,0.539-0.008c0.168,0,0.355,0.004,0.566,0.012c0.212,0.008,0.396,0.016,0.555,0.022
		c-0.013-0.036-0.02-0.067-0.023-0.096c-0.004-0.027-0.006-0.062-0.006-0.104c0-0.064,0.002-0.112,0.008-0.144
		c0.006-0.032,0.013-0.061,0.021-0.09c-0.124,0.016-0.279,0.029-0.469,0.036c-0.189,0.008-0.37,0.013-0.541,0.013
		c-0.17,0.004-0.286,0.004-0.352,0.004h-0.104c-0.003-0.162-0.007-0.336-0.011-0.524s-0.008-0.384-0.008-0.589
		c0-0.445,0.006-0.869,0.015-1.27c0.009-0.402,0.024-0.82,0.044-1.256c-0.07,0.011-0.139,0.02-0.205,0.025
		c-0.062,0.006-0.132,0.008-0.204,0.008c-0.071,0.001-0.14-0.001-0.201-0.006c-0.063-0.004-0.13-0.012-0.202-0.027
		c0.002,0.042,0.004,0.114,0.006,0.219c0.004,0.105,0.008,0.209,0.01,0.314c0.003,0.104,0.006,0.182,0.009,0.228
		c0.006,0.171,0.01,0.302,0.012,0.392c0.003,0.092,0.005,0.169,0.007,0.23c0,0.062,0,0.135,0,0.217V29.913z"/>
	<path fill="#FFFFFF" d="M106.848,28.541c0-0.111,0-0.223,0.002-0.332c0.002-0.109,0.006-0.217,0.008-0.323
		c0.205-0.001,0.406,0.001,0.604,0.008c0.2,0.005,0.388,0.016,0.562,0.033c-0.008-0.046-0.017-0.085-0.021-0.116
		c-0.004-0.031-0.007-0.063-0.007-0.095c0-0.048,0.01-0.122,0.026-0.222c-0.278,0.014-0.549,0.023-0.81,0.027
		c-0.261,0.005-0.511,0.007-0.753,0.006c-0.234,0.001-0.494-0.001-0.779-0.006c-0.283-0.004-0.547-0.014-0.787-0.027
		c0.01,0.035,0.019,0.071,0.022,0.108c0.005,0.036,0.007,0.071,0.007,0.108c0,0.034-0.002,0.07-0.007,0.107
		c-0.005,0.037-0.013,0.072-0.022,0.108c0.105-0.01,0.226-0.019,0.359-0.023c0.134-0.007,0.255-0.011,0.361-0.014
		c0.107-0.003,0.172-0.004,0.195-0.004h0.291c0.004,0.113,0.008,0.224,0.008,0.329c0.004,0.106,0.006,0.213,0.006,0.321l0.005,1.634
		c0,0.224-0.007,0.447-0.021,0.672c-0.013,0.225-0.025,0.447-0.037,0.671c0.102-0.012,0.182-0.021,0.239-0.026
		c0.058-0.005,0.111-0.008,0.158-0.008c0.037,0,0.097,0.004,0.176,0.01c0.08,0.007,0.164,0.016,0.251,0.024
		c-0.01-0.077-0.019-0.177-0.025-0.296c-0.01-0.121-0.015-0.289-0.015-0.508v-2.166H106.848z"/>
	<path fill="#FFFFFF" d="M120.415,31.513c0.053-0.005,0.118-0.011,0.194-0.02c0.076-0.009,0.156-0.014,0.238-0.015
		c0.086,0.001,0.172,0.006,0.256,0.015c0.086,0.009,0.153,0.015,0.201,0.02c-0.09-0.193-0.188-0.411-0.295-0.647
		c-0.105-0.239-0.209-0.475-0.312-0.707c-0.103-0.231-0.189-0.434-0.267-0.607c-0.111-0.254-0.242-0.568-0.396-0.941
		c-0.153-0.375-0.304-0.766-0.447-1.174c-0.032,0.009-0.063,0.016-0.095,0.021c-0.03,0.005-0.061,0.009-0.094,0.009
		c-0.034,0-0.067-0.004-0.098-0.009c-0.033-0.005-0.064-0.012-0.096-0.021c-0.07,0.234-0.191,0.557-0.367,0.967
		c-0.176,0.41-0.41,0.943-0.705,1.598l-0.68,1.513c0.04-0.007,0.083-0.015,0.125-0.022c0.043-0.007,0.089-0.012,0.139-0.012
		c0.049,0,0.098,0.005,0.146,0.012c0.051,0.008,0.096,0.016,0.135,0.022c0.049-0.171,0.115-0.368,0.199-0.593
		c0.084-0.223,0.175-0.449,0.27-0.679c0.117-0.007,0.234-0.013,0.352-0.017c0.119-0.004,0.234-0.006,0.353-0.006
		c0.125,0,0.25,0.002,0.375,0.006c0.124,0.004,0.248,0.01,0.375,0.017l0.245,0.62L120.415,31.513z M119.753,29.879
		c-0.09,0.006-0.181,0.012-0.271,0.016s-0.18,0.007-0.271,0.007c-0.103-0.001-0.202-0.004-0.304-0.01
		c-0.102-0.005-0.203-0.01-0.307-0.013l0.6-1.442L119.753,29.879z"/>
	<path fill="#FFFFFF" d="M135.27,29.386c0-0.306-0.056-0.587-0.168-0.841c-0.111-0.254-0.279-0.471-0.506-0.646
		c-0.248-0.185-0.515-0.299-0.799-0.346c-0.283-0.046-0.554-0.066-0.808-0.059c-0.177,0-0.351,0.006-0.521,0.014
		c-0.171,0.009-0.334,0.014-0.494,0.014c-0.078,0-0.16-0.003-0.24-0.009c-0.078-0.006-0.159-0.013-0.239-0.019
		c0.006,0.129,0.012,0.256,0.016,0.381c0.005,0.127,0.009,0.254,0.017,0.379c0.007,0.186,0.012,0.369,0.012,0.553
		c0,0.182,0,0.365-0.001,0.551c0,0.227,0,0.405,0,0.533c-0.001,0.127-0.001,0.23-0.001,0.309c-0.002,0.08-0.004,0.16-0.005,0.241
		l-0.036,1.072c0.092-0.007,0.184-0.013,0.275-0.019c0.09-0.006,0.186-0.01,0.274-0.011c0.179,0.002,0.356,0.007,0.539,0.015
		c0.181,0.008,0.36,0.013,0.539,0.015c0.237,0.002,0.459-0.02,0.662-0.067c0.204-0.049,0.407-0.137,0.608-0.266
		c0.277-0.178,0.492-0.417,0.645-0.72C135.189,30.158,135.268,29.8,135.27,29.386 M132.257,28.542c0-0.116,0.004-0.235,0.011-0.354
		c0.006-0.119,0.014-0.236,0.02-0.355c0.102-0.008,0.201-0.016,0.302-0.02c0.103-0.006,0.201-0.01,0.302-0.01
		c0.404,0.008,0.721,0.09,0.951,0.249c0.23,0.16,0.395,0.361,0.487,0.605c0.097,0.243,0.142,0.493,0.139,0.753
		c-0.005,0.373-0.058,0.678-0.161,0.914c-0.104,0.236-0.231,0.42-0.385,0.547c-0.152,0.127-0.307,0.215-0.459,0.263
		c-0.15,0.048-0.277,0.072-0.379,0.068c-0.054,0-0.134-0.003-0.242-0.006c-0.109-0.003-0.217-0.009-0.324-0.013
		c-0.104-0.004-0.183-0.008-0.229-0.01c-0.006-0.135-0.013-0.271-0.021-0.408c-0.006-0.137-0.01-0.272-0.01-0.407L132.257,28.542
		L132.257,28.542z"/>
	<path fill="#FFFFFF" d="M17.212,59.553v3.492l-0.942-0.001l0.001-2.313H8.419l-0.001-1.178H17.212z M10.524,57.18l1.299,2.056h-2.6
		L10.524,57.18z M10.329,56.664l0.016-0.004c0.059,0.014,0.117,0.021,0.18,0.021c0.062,0,0.121-0.009,0.178-0.021l0.017,0.006
		l0.558,1.281l-0.752-1.191l-0.755,1.191L10.329,56.664z M9.946,55.947c0-0.32,0.259-0.578,0.578-0.579
		c0.318-0.001,0.576,0.26,0.576,0.579c0,0.318-0.258,0.576-0.576,0.576C10.204,56.523,9.946,56.266,9.946,55.947 M12.073,59.207
		l-1.152-2.643c0.203-0.131,0.338-0.359,0.338-0.617c0-0.406-0.329-0.736-0.734-0.737c-0.406,0.001-0.736,0.331-0.736,0.735
		c0,0.264,0.139,0.492,0.345,0.625l-1.16,2.637l0.052,0.027H8.101v1.812l7.853,0.002l-0.001,2.312l1.576,0.001v-4.125l-5.506-0.002
		L12.073,59.207z"/>
	<path fill="#FFFFFF" d="M8.153,49.441l0.632-0.069l0.155-0.616l0.26,0.58l0.634-0.041l-0.472,0.426l0.238,0.59l-0.552-0.316
		L8.561,50.4l0.13-0.622L8.153,49.441z M14.464,52.842c-0.107,0.016-0.211,0.035-0.315,0.061l-2.665-1.729L14.464,52.842z
		 M13.718,53.035c-0.09,0.036-0.18,0.074-0.266,0.115l-2.458-1.948L13.718,53.035z M12.446,53.887
		c-0.068,0.073-0.136,0.15-0.196,0.229l-1.826-2.744L12.446,53.887z M13.108,53.344c-0.084,0.053-0.167,0.109-0.246,0.17
		l-2.291-2.272L13.108,53.344z M12.024,54.436c-0.052,0.084-0.1,0.166-0.143,0.254l-1.539-2.902L12.024,54.436z M11.702,55.104
		c-0.033,0.102-0.065,0.201-0.092,0.305l-1.349-3.137L11.702,55.104z M8.194,51.012l0.879-0.731l0.24,0.137l2.344,5.447l0.041-0.222
		c0.033-0.177,0.081-0.352,0.143-0.52l0.01-0.029l-2.217-4.352l2.254,4.248l0.059-0.121c0.062-0.139,0.135-0.271,0.214-0.396
		l0.023-0.037l-2.37-3.732h0.001l2.427,3.646l0.058-0.078c0.087-0.117,0.182-0.229,0.285-0.334l0.044-0.043l-1.689-2.098
		l1.911,1.898l0.047-0.037c0.114-0.092,0.237-0.176,0.36-0.251l0.084-0.05l-3.395-2.812l-0.001-0.003l3.455,2.74l0.034,0.027
		l0.038-0.021c0.133-0.065,0.273-0.125,0.414-0.173l0.131-0.043l-3.984-2.684l4.064,2.642l0.025,0.016l0.029-0.009
		c0.173-0.042,0.353-0.073,0.533-0.085l0.222-0.021l-5.163-2.895l-0.102-0.256l0.85-0.77l-1.145,0.078L8.88,48.047l-0.281,1.111
		l-1.141,0.123l0.971,0.609L8.194,51.012z"/>
	<path fill="#FFFFFF" d="M20.327,41.893c-0.08,0-0.143,0.063-0.145,0.144c0,0.078,0.064,0.144,0.145,0.144
		c0.079,0,0.143-0.063,0.143-0.144C20.471,41.956,20.407,41.893,20.327,41.893"/>
	<path fill="#FFFFFF" d="M19.959,46.43c0-0.043,0.034-0.076,0.076-0.076c0.044,0,0.077,0.035,0.076,0.076
		c0.001,0.043-0.034,0.078-0.076,0.078C19.993,46.506,19.959,46.471,19.959,46.43 M20.507,46.43c0-0.258-0.212-0.47-0.472-0.47
		c-0.26-0.001-0.47,0.21-0.47,0.47s0.21,0.471,0.47,0.471C20.295,46.902,20.507,46.689,20.507,46.43"/>
	<path fill="#FFFFFF" d="M34.675,46.283l-9.812-0.002c-0.091-1.844-1.216-3.48-2.927-4.213c-0.17-0.072-0.312-0.151-0.447-0.229
		c-0.309-0.174-0.602-0.337-1.091-0.337c-0.065,0-0.16,0.002-0.27,0.013l0.001-14.186l14.549,0.002L34.675,46.283z M34.674,63.876
		c0,0.837-0.39,1.544-1.544,1.544c-1.345,0-9.91-0.023-10.637-0.001c-0.688,0.021-1.785,0.062-2.379,0.567l0.043-14.635
		c2.582-0.064,4.67-2.162,4.714-4.754l9.806,0.002L34.674,63.876z M15.484,46.518c-0.001-1.326,0.578-2.479,1.549-3.248
		c-0.751,0.832-1.218,1.994-1.218,3.246c0,2.326,1.893,4.222,4.219,4.223c2.327-0.001,4.222-1.893,4.222-4.221
		c0.001-2.34-1.425-3.793-3.719-3.795c-0.134,0-0.63-0.142-0.943-0.273l0.345-0.178l-0.467-0.332
		c0.352-0.137,0.783-0.149,0.928-0.149c0.415,0,0.65,0.133,0.951,0.3c0.137,0.076,0.291,0.162,0.473,0.241
		c1.679,0.718,2.764,2.36,2.764,4.187c-0.001,2.512-2.042,4.554-4.553,4.554C17.526,51.068,15.483,49.028,15.484,46.518
		 M19.797,66.029c-0.618-0.48-1.732-0.61-2.438-0.61L6.821,65.418c-1.153,0-1.543-0.707-1.543-1.545L5.28,46.598h9.92
		c0.043,2.564,2.092,4.65,4.64,4.752L19.797,66.029z M16.544,48.326c-0.283-0.543-0.443-1.158-0.443-1.809
		c0-2.056,1.321-3.853,3.072-4.183c0.008,0,0.014-0.002,0.02-0.003l-0.176,0.089l0.184,0.14c0.133,0.101,0.432,0.221,0.719,0.31
		L16.544,48.326z M21.476,45.7c-0.379-0.267-0.881-0.513-1.441-0.513c-0.608,0-1.148,0.293-1.536,0.582l1.514-2.445L21.476,45.7z
		 M20.146,42.936c0.168,0.045,0.314,0.071,0.392,0.071c2.149,0.003,3.433,1.312,3.433,3.511c0,0.674-0.172,1.308-0.469,1.862
		L20.146,42.936z M23.399,48.557c-0.691,1.135-1.941,1.896-3.365,1.896c-1.424-0.002-2.672-0.762-3.363-1.896H23.399z
		 M21.077,45.822c0.355,0.21,0.629,0.469,0.766,0.607c-0.137,0.141-0.41,0.399-0.766,0.608c0.104-0.181,0.166-0.388,0.166-0.608
		S21.183,46.002,21.077,45.822 M19.146,46.43c0-0.49,0.399-0.891,0.891-0.891c0.49,0,0.891,0.4,0.891,0.891
		c0,0.492-0.4,0.891-0.891,0.892C19.545,47.32,19.146,46.922,19.146,46.43 M20.034,47.672c0.955-0.002,1.744-0.717,2.031-1.016
		l0.975,1.584h-6.069l1.003-1.619C18.222,46.889,19.039,47.671,20.034,47.672 M18.993,47.037c-0.354-0.211-0.629-0.469-0.764-0.607
		c0.135-0.141,0.409-0.398,0.764-0.608c-0.104,0.182-0.166,0.387-0.166,0.608C18.828,46.65,18.89,46.857,18.993,47.037 M5.283,27.33
		h14.531l-0.003,14.225c-0.232,0.041-0.486,0.114-0.693,0.244l-0.18,0.113l0.199,0.141c-0.004,0.002-0.008,0.002-0.015,0.004
		c-2.264,0.387-3.812,2.068-3.919,4.226L5.28,46.28L5.283,27.33z M16.967,20.35l1.872-1.239l-1.527,4.406l0.299,0.104l1.664-4.799
		l0.541-0.355v0.268l-0.002,8.051l-7.827-0.002L16.967,20.35z M19.815,16.671v1.415l-0.77,0.508l-0.023-0.008l-0.012,0.032
		l-1.441,0.952L19.815,16.671z M18.35,16.789l1.304-0.43L17.533,19.1L18.35,16.789z M17.585,16.09v-0.004h-0.006l-1.497-1.097
		l3.45,1.077l-1.365,0.449L17.585,16.09z M18.682,14.648l0.791,1.068l-3.19-0.997L18.682,14.648z M19.815,11.91v3.736l-0.867-1.172
		L19.815,11.91z M20.132,18.734V18.33l0.645,0.469l1.645,4.771l0.3-0.104l-1.497-4.34l1.672,1.215l4.771,6.445H20.13L20.132,18.734z
		 M20.132,16.607l2.134,2.883l-1.222-0.891l-0.006-0.014l-0.009,0.004l-0.897-0.652V16.607z M20.132,11.719l0.686,1.676
		l-0.004,0.014l0.011,0.004l0.385,0.938l-1.078,1.391V11.719z M21.458,14.548l2.064,0.204l-2.984,0.983L21.458,14.548z
		 M22.077,16.529l-1.509-0.471l3.515-1.156L22.077,16.529z M22.595,19.402l-2.289-3.095l1.624,0.509L22.595,19.402z M28.062,26.785
		l-4.965-6.706l-0.489-1.903l3.691,2.645l0.185-0.258l-3.998-2.865l-0.199-0.771l9.186,2.869l0.096-0.302l-9.126-2.85l0.298-0.243
		l5.117,0.001v-0.316l-4.727-0.002l1.799-1.461l6.693-2.206l-0.1-0.302l-7.256,2.391l-1.625-0.16l3.686-2.631l-0.184-0.26
		l-3.98,2.844l-0.477-0.047l5.878-7.594l-0.251-0.194l-5.881,7.599l-0.275-0.677l1.514-4.364l-0.3-0.105l-1.396,4.025l-0.844-2.061
		l0.001-6.623h-0.317v6.664l-0.718,2.121l-1.494-4.336l-0.3,0.104l1.625,4.717l0.006-0.001l-0.217,0.638l-5.854-7.908l-0.256,0.188
		l5.844,7.894l-0.639,0.019l0.004-0.006l-3.992-2.843l-0.184,0.258l3.66,2.607l-1.945,0.058l-6.918-2.161l-0.094,0.303l6.802,2.125
		l1.896,1.387h-4.826v0.316l5.259,0.002l0.323,0.234l-9.457,3.117l0.1,0.301l9.528-3.141l-0.185,0.525l-0.01-0.016l-4.396,3.138
		l0.186,0.258l4.047-2.89l-0.697,1.971l-5.328,6.883h-6.85L4.731,63.873c0,1.055,0.555,2.094,2.09,2.094H17.36
		c0.523,0,2.342,0.144,2.342,0.926h0.547c0-0.91,1.687-0.907,2.261-0.926c0.726-0.022,9.278,0,10.62,0
		c1.536,0.002,2.092-1.035,2.092-2.09l0.004-37.09L28.062,26.785z"/>
	<path fill="#FFFFFF" d="M14.54,40.419h-2.992v-0.447l2.992,0.001V40.419L14.54,40.419z M13.527,41.758v0.545L12.6,42.301v-0.16
		L13.527,41.758z M12.601,41.117l0.001-0.364l0.886-0.001L12.601,41.117z M13.528,41.079l-0.001,0.337l-0.927,0.38v-0.337
		L13.528,41.079z M14.124,42.618c-0.076,0.517-0.521,0.913-1.06,0.913s-0.983-0.396-1.061-0.914h0.28v0.002h1.561v-0.002
		L14.124,42.618z M13.065,32.779l0.405,6.85h-0.405h-0.406L13.065,32.779z M9.897,31.661l-0.189-0.403l3.131,0.001l-0.023,0.402
		H9.897z M11.231,35.201H8.173l1.531-3.209L11.231,35.201z M9.702,36.968c-0.836,0-1.525-0.636-1.609-1.45h3.219
		C11.226,36.334,10.538,36.968,9.702,36.968 M16.722,31.261l-0.189,0.401l-3.216-0.001l-0.024-0.402L16.722,31.261z M18.248,35.203
		H15.19l1.531-3.208L18.248,35.203z M16.724,31.261L16.724,31.261h-0.002H16.724z M16.72,36.972c-0.838,0-1.526-0.638-1.61-1.452
		h3.218C18.243,36.338,17.554,36.972,16.72,36.972 M13.329,31.888h3.096l-1.641,3.466c0,1.068,0.865,1.934,1.934,1.935
		c1.068,0,1.934-0.864,1.937-1.97l-1.706-3.582v-0.703H13.28l-0.056-0.936H12.91l-0.058,0.936H9.479v0.701L7.768,35.35
		c-0.001,1.07,0.864,1.934,1.934,1.934c1.067,0,1.932-0.861,1.934-1.968l-1.631-3.429h2.797l-0.462,7.769l-1.108-0.001v1.082
		l1.053-0.002v1.565h-0.607v0.159c-0.001,0.767,0.621,1.386,1.388,1.388c0.767,0,1.388-0.621,1.389-1.388v-0.159h-0.608v-1.564
		l1.01,0.001l0.002-1.08l-1.066-0.001L13.329,31.888z"/>
	<path fill="#FFFFFF" d="M26.321,32.5c0.12-0.004,0.213-0.104,0.209-0.224c-0.004-0.118-0.104-0.212-0.223-0.208
		c-0.12,0.004-0.213,0.104-0.209,0.224C26.102,32.411,26.202,32.504,26.321,32.5"/>
	<path fill="#FFFFFF" d="M22.777,30.017c0.358-0.239,0.821-0.268,1.177-0.076l0.042,1.223l0.823,1.144
		c-0.09,0.205-0.174,0.431-0.243,0.671l-1.071-1.451l-1.184-0.482C22.269,30.621,22.433,30.248,22.777,30.017 M25.63,31.564
		c0.324-0.391,0.9-0.006,0.93,0.016c0.343,0.211,0.605,0.504,0.236,1.223c-0.121,0.031-0.412,0.095-0.784,0.119
		c-0.145,0.01-0.269,0.077-0.356,0.195c-0.312,0.42-0.101,1.426-0.074,1.547c0.138,0.504,0.398,1.033,1.768,0.922
		c0.941-0.079,1.062,1.143,1.066,1.205c0.031,0.207,0.034,0.412,0.008,0.646l-0.784-1.144l-0.349,0.041
		c-1.224,0.189-1.677-0.19-2.069-0.633c-0.286-0.324-0.602-0.926-0.477-1.966C24.859,32.786,25.294,31.973,25.63,31.564
		 M26.64,35.259c-0.59-0.09-0.679-0.407-0.752-0.671c-0.037-0.17-0.071-0.403-0.082-0.627L26.64,35.259z M27.291,36.653
		c0.015-0.002,0.028-0.003,0.042-0.005l0.153-0.02l0.796,1.162c-0.077,0.031-0.142,0.066-0.193,0.096L27.291,36.653z M28.776,38.001
		c0.18-0.013,0.781-0.019,1.036,0.51c0.171,0.354,0.136,0.843-0.002,1.167l-0.628-0.977l-0.137,0.17
		c-0.275,0.336-0.613,0.465-1.07,0.405c-0.59-0.076-0.886-0.725-0.887-0.725c-0.002-0.006-0.204-0.556,0.107-1.155l0.092-0.166
		l0.723,1.115l0.137-0.117C28.149,38.225,28.38,38.031,28.776,38.001 M29.124,39.246c0.006-0.006,0.014-0.012,0.021-0.019
		l0.543,0.845c-0.003,0.001-0.006,0.002-0.007,0.002L29.124,39.246z M31.208,40.928c0.154,0.324,0.164,0.712,0.039,1.018
		l-0.51-0.801c0.004-0.005,0.01-0.012,0.014-0.016l-0.178-0.258c-0.167,0.085-0.648,0.31-0.86,0.332
		c-0.262,0.027-0.636-0.072-0.89-0.438c-0.135-0.194-0.182-0.382-0.141-0.56c0.056-0.23,0.247-0.403,0.372-0.492l0.512,0.76
		l0.096-0.066l0.008,0.017c0.119-0.056,0.142-0.061,0.331-0.103C30.612,40.189,31.025,40.549,31.208,40.928 M31.001,43.461
		c-0.129-0.312-0.328-0.498-0.524-0.641l-0.044-0.031c-0.209-0.15-0.447-0.322-0.438-0.564c0.006-0.186,0.178-0.451,0.377-0.692
		l0.692,0.987C31.077,42.789,31.045,43.137,31.001,43.461 M22.038,31.272l1.266,0.515l1.176,1.594
		c-0.02,0.104-0.036,0.21-0.049,0.317c-0.14,1.156,0.225,1.841,0.555,2.212c0.373,0.421,0.862,0.849,1.952,0.78l0.154,0.238
		l-0.177,0.319c-0.375,0.727-0.133,1.389-0.118,1.425c0.015,0.032,0.368,0.816,1.138,0.918c0.352,0.046,0.664-0.009,0.933-0.157
		l0.009,0.014c-0.162,0.119-0.42,0.353-0.5,0.686c-0.064,0.268-0.002,0.541,0.189,0.814c0.332,0.477,0.83,0.607,1.18,0.57
		c0.08-0.006,0.18-0.033,0.286-0.069c-0.183,0.239-0.347,0.521-0.354,0.765c-0.012,0.412,0.324,0.656,0.57,0.832l0.043,0.031
		c0.244,0.179,0.508,0.424,0.529,1.092l0.01,0.281l0.313,0.027c0.01-0.043,0.184-0.83,0.23-1.521l1.504,2.142l0.262-0.175
		l-1.694-2.668c0.254-0.413,0.278-0.985,0.049-1.465c-0.283-0.588-0.857-0.893-1.479-0.795l-0.007-0.011
		c0.243-0.388,0.345-1.085,0.091-1.612c-0.271-0.564-0.873-0.725-1.346-0.689c-0.017,0.002-0.03,0.006-0.045,0.007
		c0.061-0.358,0.066-0.645,0.023-0.938c-0.051-0.547-0.41-1.562-1.408-1.482c-0.105,0.01-0.201,0.012-0.292,0.012l-1.183-1.842
		c0.016-0.054,0.037-0.098,0.062-0.133c0.031-0.043,0.07-0.064,0.122-0.068c0.528-0.034,0.9-0.145,0.915-0.148l0.063-0.02
		l0.032-0.057c0.413-0.76,0.31-1.318-0.311-1.699c-0.287-0.198-0.94-0.444-1.347,0.048c-0.13,0.157-0.272,0.37-0.408,0.624
		l-0.669-0.931l-0.045-1.295l-0.07-0.045c-0.465-0.302-1.106-0.288-1.594,0.038c-0.471,0.314-0.688,0.851-0.578,1.434L22.038,31.272
		z"/>
	<path fill="#FFFFFF" d="M25.861,56.712c0.296-0.229,0.694-0.342,1.06-0.301l0.024-0.224c-0.424-0.051-0.88,0.08-1.216,0.342
		c-0.264,0.176-0.476,0.27-0.645,0.279l0.016,0.227C25.313,57.02,25.554,56.92,25.861,56.712"/>
	<path fill="#FFFFFF" d="M25.861,56.26c0.296-0.229,0.694-0.342,1.058-0.3l0.026-0.224c-0.423-0.053-0.88,0.08-1.216,0.341
		c-0.264,0.175-0.476,0.269-0.643,0.28l0.014,0.225C25.313,56.566,25.554,56.467,25.861,56.26"/>
	<path fill="#FFFFFF" d="M25.862,55.807c0.297-0.229,0.693-0.341,1.058-0.301l0.025-0.223c-0.423-0.051-0.88,0.08-1.216,0.342
		c-0.265,0.176-0.475,0.27-0.644,0.279l0.015,0.227C25.313,56.115,25.554,56.014,25.862,55.807"/>
	<path fill="#FFFFFF" d="M25.861,55.354c0.298-0.23,0.694-0.34,1.06-0.299l0.024-0.226c-0.424-0.049-0.878,0.08-1.216,0.341
		c-0.265,0.178-0.476,0.271-0.645,0.281l0.016,0.227C25.313,55.663,25.554,55.562,25.861,55.354"/>
	<path fill="#FFFFFF" d="M25.861,54.902c0.298-0.232,0.694-0.342,1.058-0.301l0.027-0.224c-0.424-0.051-0.881,0.08-1.217,0.341
		c-0.265,0.176-0.475,0.27-0.645,0.28l0.017,0.226C25.313,55.211,25.554,55.109,25.861,54.902"/>
	<path fill="#FFFFFF" d="M25.862,54.449c0.295-0.23,0.693-0.342,1.058-0.301l0.026-0.223c-0.424-0.051-0.881,0.078-1.217,0.34
		c-0.264,0.176-0.475,0.271-0.644,0.28l0.016,0.228C25.314,54.758,25.554,54.656,25.862,54.449"/>
	<path fill="#FFFFFF" d="M25.862,53.998c0.297-0.23,0.693-0.343,1.058-0.301l0.027-0.225c-0.425-0.05-0.882,0.08-1.218,0.34
		c-0.264,0.179-0.475,0.271-0.644,0.281L25.1,54.32C25.314,54.307,25.554,54.205,25.862,53.998"/>
	<path fill="#FFFFFF" d="M25.862,53.545c0.297-0.23,0.693-0.341,1.058-0.299l0.026-0.227c-0.424-0.049-0.881,0.08-1.217,0.342
		c-0.265,0.177-0.475,0.271-0.644,0.281l0.015,0.226C25.313,53.854,25.553,53.752,25.862,53.545"/>
	<path fill="#FFFFFF" d="M28.232,56.186l0.025,0.226c0.368-0.043,0.763,0.069,1.065,0.304c0.303,0.203,0.542,0.305,0.753,0.319
		l0.017-0.226c-0.168-0.013-0.379-0.105-0.638-0.277C29.112,56.268,28.655,56.139,28.232,56.186"/>
	<path fill="#FFFFFF" d="M28.231,55.735l0.027,0.225c0.367-0.044,0.762,0.069,1.064,0.302c0.302,0.205,0.542,0.305,0.753,0.319
		l0.017-0.226c-0.168-0.01-0.379-0.104-0.638-0.277C29.112,55.816,28.655,55.686,28.231,55.735"/>
	<path fill="#FFFFFF" d="M28.232,55.283l0.026,0.223c0.367-0.042,0.762,0.07,1.064,0.305c0.302,0.203,0.542,0.306,0.755,0.32
		l0.015-0.227c-0.169-0.012-0.379-0.105-0.638-0.279C29.112,55.362,28.655,55.234,28.232,55.283"/>
	<path fill="#FFFFFF" d="M28.233,54.828l0.024,0.227c0.368-0.045,0.763,0.068,1.065,0.303c0.302,0.203,0.542,0.307,0.755,0.322
		l0.015-0.228c-0.168-0.013-0.38-0.104-0.637-0.278C29.112,54.91,28.655,54.782,28.233,54.828"/>
	<path fill="#FFFFFF" d="M28.232,54.377l0.026,0.225c0.367-0.045,0.762,0.068,1.064,0.304c0.302,0.204,0.542,0.306,0.753,0.319
		L30.092,55c-0.168-0.012-0.379-0.105-0.638-0.279C29.113,54.459,28.655,54.328,28.232,54.377"/>
	<path fill="#FFFFFF" d="M28.232,53.924l0.026,0.225c0.367-0.043,0.762,0.07,1.064,0.305c0.303,0.204,0.543,0.304,0.753,0.32
		l0.017-0.226c-0.169-0.011-0.379-0.104-0.638-0.278C29.112,54.006,28.655,53.878,28.232,53.924"/>
	<path fill="#FFFFFF" d="M28.233,53.473l0.024,0.226c0.368-0.044,0.763,0.069,1.065,0.303c0.301,0.203,0.543,0.306,0.755,0.32
		l0.015-0.226c-0.168-0.013-0.38-0.104-0.638-0.276C29.112,53.553,28.655,53.424,28.233,53.473"/>
	<path fill="#FFFFFF" d="M28.232,53.02l0.026,0.225c0.367-0.044,0.762,0.07,1.064,0.305c0.302,0.203,0.542,0.305,0.755,0.318
		l0.015-0.225c-0.168-0.012-0.379-0.104-0.637-0.278C29.113,53.1,28.655,52.973,28.232,53.02"/>
	<path fill="#FFFFFF" d="M24.601,53.254c0.127,0.096,0.268,0.164,0.449,0.164c0.224,0.001,0.48-0.102,0.812-0.324
		c0.253-0.195,0.583-0.309,0.905-0.309c0.299,0,0.561,0.097,0.709,0.259v3.778c-0.455-0.297-1.223-0.246-1.746,0.158
		c-0.669,0.449-0.885,0.285-1.13,0.045L24.601,53.254z M26.344,51.922c0.107,0.086,0.235,0.114,0.426,0.069l0.081-0.021l0.005-0.084
		c0.015-0.32-0.003-0.57-0.054-0.75c0.109,0.055,0.201,0.133,0.273,0.242l0.197-0.107c-0.109-0.265-0.16-0.455-0.176-0.592
		c0.07,0.053,0.156,0.09,0.256,0.108l0.146,0.03l-0.012-0.148c-0.023-0.283,0.013-0.52,0.104-0.707
		c0.09,0.188,0.125,0.424,0.102,0.705l-0.012,0.148l0.147-0.029c0.1-0.02,0.186-0.057,0.257-0.107
		c-0.017,0.137-0.067,0.326-0.179,0.594l0.199,0.105c0.073-0.109,0.164-0.189,0.275-0.242c-0.053,0.18-0.07,0.43-0.056,0.75
		l0.005,0.082l0.082,0.021c0.188,0.047,0.316,0.02,0.426-0.067c0,0.226-0.105,0.435-0.318,0.64
		c-0.035-0.002-0.071-0.004-0.107-0.006c-0.334,0.002-0.627,0.104-0.822,0.282c-0.195-0.18-0.486-0.278-0.821-0.278
		c-0.036,0-0.071,0.002-0.105,0.004C26.448,52.355,26.343,52.148,26.344,51.922 M29.323,53.096c0.326,0.221,0.582,0.322,0.807,0.321
		c0.182,0.001,0.322-0.067,0.449-0.163l-0.002,3.771c-0.244,0.24-0.459,0.404-1.122-0.043c-0.528-0.406-1.298-0.461-1.752-0.16
		l0.001-3.779c0.148-0.164,0.408-0.26,0.707-0.26C28.734,52.783,29.065,52.896,29.323,53.096 M30.688,57.232l0.465,0.48l-2.98,0.001
		l-0.468-0.6c0.299-0.326,1.062-0.378,1.618,0.053C30.049,57.655,30.378,57.518,30.688,57.232 M30.805,53.283l0.431,0.443
		l-0.002,3.746l-0.431-0.443L30.805,53.283z M31.46,57.408l0.696,0.098l-0.854,0.789l-0.065,0.061l-0.886,0.814
		c-0.282,0.27-0.385,0.877-0.232,1.274l-1.862-0.394c-0.07-0.199-0.058-0.369,0.024-0.523l-0.242-0.129
		c-0.101,0.186-0.125,0.383-0.085,0.588l-0.629-0.133c-0.091-0.219-0.084-0.406,0.005-0.574l-0.243-0.129
		c-0.108,0.199-0.128,0.416-0.072,0.639l-1.479-0.312c-0.079-0.207-0.069-0.385,0.016-0.543l-0.244-0.129
		c-0.102,0.188-0.125,0.396-0.078,0.605l-0.711-0.148c-0.092-0.221-0.085-0.408,0.004-0.574l-0.243-0.131
		c-0.107,0.201-0.128,0.416-0.073,0.64L23,58.941l-0.088-0.055l-0.051-0.07l-0.023-0.147c-0.045-0.282,0.028-0.644,0.113-0.708
		l0.77-0.576v0.559l3.398-0.002l0.475-0.605l0.471,0.605l3.398,0.002v-0.535H31.46z M32.173,58.746l-0.646,0.633l-1.083,1.083
		c-0.17-0.214-0.185-0.827,0.095-1.092l0.552-0.507l0.146-0.137l0.052-0.047l0.302-0.277l0.529-0.486
		c-0.036,0.205-0.029,0.408,0.035,0.566l0.116,0.139L32.173,58.746z M32.451,58.846l0.464,0.064l-2.076,1.906
		c-0.324,0.311-0.441,1.007-0.266,1.463l-2.139-0.449c-0.08-0.227-0.066-0.424,0.028-0.602l-0.279-0.148
		c-0.114,0.214-0.142,0.441-0.097,0.677l-0.72-0.151c-0.105-0.252-0.097-0.467,0.005-0.659l-0.279-0.146
		c-0.123,0.229-0.148,0.475-0.084,0.729l-1.697-0.357c-0.091-0.237-0.08-0.442,0.019-0.626L25.05,60.4
		c-0.117,0.22-0.145,0.453-0.091,0.697l-0.817-0.172c-0.104-0.253-0.097-0.468,0.006-0.658l-0.279-0.15
		c-0.123,0.232-0.147,0.479-0.084,0.732l-1.462-0.31c-0.219-0.276-0.112-1.006,0.022-1.11l0.402-0.301
		c0.014,0.02,0.027,0.036,0.042,0.051l7.701,1.627L32.451,58.846z M30.946,62.301c-0.193-0.244-0.211-0.947,0.109-1.252l1.812-1.668
		c-0.058,0.332-0.02,0.663,0.163,0.84L30.946,62.301z M23.944,57.215v-0.346v-3.143l0.43-0.443v3.744l-0.43,0.445V57.215z
		 M24.49,57.232c0.31,0.283,0.641,0.424,1.371-0.07c0.552-0.425,1.312-0.371,1.611-0.047l-0.467,0.6h-2.979L24.49,57.232z
		 M24.485,52.842l-0.765,0.795l-0.002,3.402l-0.936,0.701c-0.263,0.201-0.277,0.721-0.17,1.094l-0.46,0.344
		c-0.419,0.322-0.293,1.355,0.009,1.651L31,62.695l2.364-2.359v-0.281c-0.369-0.186-0.158-0.842-0.024-1.066l0.024-0.037v-0.297
		l-0.814-0.117v-0.033c-0.322-0.16-0.139-0.734-0.021-0.929l0.021-0.032v-0.261l-1.09-0.152l0.001-3.493l-0.768-0.795l-0.081,0.08
		c-0.154,0.153-0.289,0.27-0.482,0.27c-0.174,0-0.397-0.092-0.674-0.278c-0.195-0.149-0.424-0.256-0.666-0.312
		c0.252-0.297,0.33-0.613,0.23-0.963l-0.066-0.228l-0.136,0.194c-0.103,0.146-0.163,0.188-0.271,0.18
		c-0.015-0.52,0.078-0.697,0.136-0.756l0.244-0.246l-0.342,0.055c-0.119,0.02-0.227,0.053-0.324,0.104
		c0.07-0.262,0.074-0.457,0.014-0.607l-0.11-0.271l-0.101,0.277c-0.027,0.078-0.072,0.137-0.139,0.174
		c0.002-0.34-0.08-0.623-0.245-0.84l-0.089,0.068l-0.092-0.068c-0.166,0.219-0.247,0.5-0.244,0.842
		c-0.066-0.039-0.11-0.097-0.139-0.176l-0.1-0.277l-0.111,0.275c-0.061,0.146-0.057,0.348,0.013,0.604
		c-0.097-0.051-0.204-0.086-0.322-0.104l-0.341-0.054l0.242,0.244c0.059,0.059,0.15,0.235,0.136,0.757
		c-0.108,0.01-0.17-0.035-0.272-0.182l-0.135-0.193l-0.066,0.227c-0.101,0.352-0.024,0.668,0.229,0.967
		c-0.241,0.054-0.467,0.154-0.657,0.306c-0.285,0.19-0.507,0.284-0.682,0.282c-0.193,0-0.328-0.114-0.482-0.27L24.485,52.842z"/>
	<path fill="#FFFFFF" d="M16.058,53.76c-0.137,0.299-0.328,0.577-0.508,0.578c-0.143-0.001-0.316-0.297-0.461-0.766
		C15.424,53.572,15.751,53.639,16.058,53.76 M16.811,54.207c-0.798,0.65-0.778,0.828-0.771,0.889
		c0.024,0.193,0.274,0.324,0.519,0.448c0.041,0.021,0.115,0.058,0.164,0.087c-0.047,0.105-0.115,0.275,0.016,0.514
		c0.024,0.045,0.037,0.148,0.051,0.254c0.037,0.308,0.094,0.773,0.59,1.011l0.047,0.014l0.016,0.003c0.029,0,0.054,0,0.078-0.02
		c-0.152,0.322-0.367,0.615-0.64,0.859c-0.495,0.445-1.135,0.691-1.801,0.691c-0.345,0-0.684-0.07-0.999-0.195l0.059,0.002
		l0.015-0.052c0.029-0.097,0.29-0.969,0.386-1.183c0.053-0.121,0.154-0.223,0.246-0.314c0.066-0.068,0.126-0.128,0.166-0.195
		c0.006-0.014,0.018-0.026,0.026-0.043l0.011-0.016c0.081-0.128,0.193-0.303,0.164-0.529c-0.022-0.178-0.123-0.299-0.226-0.42
		c-0.05-0.06-0.101-0.119-0.146-0.191c-0.074-0.118-0.192-0.178-0.306-0.237c-0.099-0.049-0.192-0.101-0.265-0.183
		c-0.111-0.129-0.261-0.145-0.393-0.145L13.69,55.26c-0.123-0.004-0.155-0.021-0.18-0.063c-0.203-0.336-0.299-0.744-0.221-0.802
		c0.049,0,0.164,0.104,0.227,0.16l0.015,0.015c0.109,0.1,0.196,0.177,0.3,0.179c0.041-0.001,0.079-0.016,0.111-0.04
		c0.052-0.037,0.119-0.117,0.24-0.262c0.064-0.074,0.213-0.253,0.237-0.273l0.022-0.018l0.01-0.071l0.09-0.079l-0.035-0.052
		c-0.099-0.125-0.238-0.188-0.419-0.188c-0.004,0-0.011,0-0.016,0.002c0.277-0.113,0.572-0.178,0.877-0.19
		c0.127,0.427,0.328,0.896,0.602,0.896c0.278,0,0.502-0.379,0.633-0.664C16.407,53.91,16.619,54.047,16.811,54.207 M17.079,54.463
		c0.47,0.52,0.711,1.189,0.688,1.889c-0.189,0.609-0.287,0.906-0.317,0.938l-0.021-0.007c-0.422-0.206-0.47-0.592-0.509-0.904
		c-0.015-0.125-0.027-0.232-0.065-0.301c-0.104-0.186-0.049-0.309-0.004-0.402c0.006-0.016,0.014-0.031,0.018-0.044l0.02-0.045
		l-0.039-0.032c-0.043-0.033-0.137-0.082-0.231-0.133c-0.2-0.103-0.429-0.219-0.443-0.342c-0.011-0.082,0.187-0.332,0.739-0.782
		C16.969,54.35,17.026,54.402,17.079,54.463 M13.988,58.625c-0.028-0.135-0.103-0.492-0.145-0.682
		c-0.025-0.112-0.062-0.17-0.091-0.215c-0.031-0.049-0.054-0.084-0.04-0.157c0.026-0.13,0.053-0.569-0.023-0.669
		c-0.035-0.047-0.101-0.063-0.162-0.075c-0.074-0.019-0.16-0.034-0.204-0.108c-0.055-0.092-0.061-0.17-0.066-0.248
		c-0.004-0.033-0.005-0.063-0.015-0.098c-0.021-0.086-0.101-0.254-0.129-0.311l-0.004-0.01l0.006-0.005
		c0.002-0.002,0.255-0.282,0.103-0.562c-0.11-0.199-0.192-0.246-0.278-0.292c-0.035-0.021-0.072-0.04-0.111-0.07
		c-0.023-0.021-0.076-0.054-0.143-0.094c0.119-0.229,0.272-0.444,0.457-0.634c-0.06,0.228,0.132,0.668,0.252,0.869
		c0.07,0.116,0.186,0.125,0.299,0.127l0.126-0.002c0.123,0,0.22,0.016,0.29,0.1c0.091,0.102,0.199,0.158,0.307,0.213
		c0.101,0.053,0.195,0.102,0.251,0.189c0.05,0.078,0.104,0.144,0.161,0.211c0.094,0.108,0.174,0.207,0.191,0.344
		c0.022,0.182-0.067,0.318-0.146,0.439l-0.009,0.016c-0.011,0.018-0.021,0.033-0.031,0.05c-0.031,0.052-0.084,0.106-0.148,0.17
		c-0.098,0.099-0.206,0.212-0.27,0.353c-0.089,0.199-0.313,0.938-0.377,1.151L13.988,58.625z M13.076,58.064
		c-0.481-0.534-0.726-1.225-0.688-1.941c0.018-0.342,0.101-0.67,0.238-0.973c0.057,0.035,0.098,0.062,0.117,0.078
		c0.048,0.037,0.094,0.063,0.131,0.082c0.077,0.043,0.135,0.072,0.225,0.242c0.105,0.191-0.082,0.4-0.084,0.405l-0.068,0.072
		l0.045,0.092c0.033,0.062,0.104,0.215,0.12,0.283c0.006,0.026,0.009,0.052,0.011,0.082c0.006,0.077,0.014,0.181,0.083,0.299
		c0.075,0.125,0.206,0.151,0.292,0.172c0.025,0.004,0.073,0.017,0.082,0.021c0.029,0.05,0.035,0.396,0.001,0.562
		c-0.024,0.129,0.024,0.201,0.06,0.258c0.025,0.041,0.053,0.083,0.072,0.172c0.043,0.193,0.122,0.565,0.146,0.689
		C13.567,58.512,13.299,58.314,13.076,58.064 M13.7,53.949L13.7,53.949c0.037,0,0.086-0.01,0.148-0.02
		c0.073-0.016,0.156-0.029,0.238-0.029c0.111,0,0.201,0.029,0.268,0.089l-0.029,0.026l-0.01,0.069
		c-0.035,0.035-0.104,0.115-0.241,0.279c-0.092,0.11-0.171,0.202-0.213,0.235c-0.048,0.037-0.132-0.035-0.239-0.133l-0.016-0.015
		c-0.101-0.091-0.215-0.194-0.316-0.194c-0.005,0-0.01,0.002-0.014,0.002C13.407,54.143,13.551,54.041,13.7,53.949 M13.096,54.062
		c-0.588,0.528-0.935,1.256-0.976,2.047c-0.043,0.787,0.227,1.549,0.756,2.136c0.561,0.622,1.363,0.979,2.203,0.979
		c0.731,0.002,1.436-0.27,1.98-0.761c0.589-0.528,0.935-1.256,0.976-2.045c0.042-0.79-0.227-1.55-0.756-2.137
		c-0.562-0.623-1.364-0.981-2.203-0.981C14.345,53.301,13.641,53.572,13.096,54.062"/>
</g>
</svg>
