<?xml version="1.0" encoding="utf-8"?>
<!-- Generator: Adobe Illustrator 16.0.0, SVG Export Plug-In . SVG Version: 6.00 Build 0)  -->
<!DOCTYPE svg PUBLIC "-//W3C//DTD SVG 1.0//EN" "http://www.w3.org/TR/2001/REC-SVG-20010904/DTD/svg10.dtd">
<svg version="1.0" id="Capa_1" xmlns="http://www.w3.org/2000/svg" xmlns:xlink="http://www.w3.org/1999/xlink" x="0px" y="0px"
	 width="185.979px" height="71.832px" viewBox="0 0 185.979 71.832" enable-background="new 0 0 185.979 71.832"
	 xml:space="preserve">
<g id="Capa_2" display="none">
	<text transform="matrix(1 0 0 1 315.0503 218.6479)" display="inline" fill="#FFFFFF" font-family="'Optima-Bold'" font-size="18">TIENDITA </text>
	<text transform="matrix(1 0 0 1 405.7524 218.6479)" display="inline" fill="#FFFFFF" font-family="'Optima'" font-size="18">FEN</text>
</g>
<g>
	<path fill="#FFFFFF" d="M7.96,37.041h1.358h1.63L25.895,53.48V37.041h1.359c0.045,0.068,0.102,0.114,0.169,0.137
		c0.068,0.022,0.136,0.045,0.204,0.067c0.09-0.022,0.17-0.045,0.238-0.067s0.124-0.045,0.17-0.068l1.358-0.034V60.58h-1.358H26.71
		L11.459,43.63V60.58H10.1c-0.022,0-0.045,0-0.068,0s-0.045,0-0.068,0c-0.045,0-0.08-0.006-0.102-0.018
		c-0.022-0.011-0.045-0.017-0.068-0.017c-0.045,0-0.085,0-0.119,0c-0.034,0-0.074,0.012-0.119,0.034c-0.045,0-0.085,0-0.119,0
		c-0.034,0-0.074,0-0.119,0H7.96V37.041z"/>
	<path fill="#FFFFFF" d="M43.591,36.769h1.358h0.781L56.192,60.58h-1.359c-0.068,0-0.142,0-0.221,0c-0.08,0-0.165,0-0.255,0
		c-0.091,0-0.176,0-0.254,0c-0.08,0-0.176,0-0.289,0c-0.045,0-0.097,0-0.153,0c-0.057,0-0.107-0.012-0.153-0.034
		c-0.045,0-0.097,0-0.153,0c-0.057,0-0.108,0-0.153,0c-0.045,0.022-0.097,0.034-0.153,0.034c-0.057,0-0.108,0-0.153,0
		c-0.045,0-0.091,0-0.136,0c-0.046,0-0.08,0-0.102,0c-0.045,0-0.085,0-0.119,0c-0.034,0-0.074,0-0.119,0h-1.358l-3.736-9.375h-6.929
		l-3.465,9.375h-1.358c-0.046,0-0.097,0-0.153,0c-0.057,0-0.108,0-0.153,0l-0.17-0.034c-0.023,0.022-0.057,0.034-0.102,0.034
		s-0.08,0-0.102,0c-0.046,0-0.085,0-0.119,0c-0.034,0-0.074,0-0.119,0h-1.359c-0.068,0-0.136,0-0.204,0s-0.136,0-0.204,0
		L43.591,36.769z M46.784,49.609l-2.785-6.658l-2.786,6.658H46.784z"/>
	<path fill="#FFFFFF" d="M61.253,37.041h1.359h1.053l8.695,16.645l8.934-16.645h1.358h1.087l2.684,23.539h-1.359
		c-0.136,0-0.272-0.006-0.408-0.018c-0.136-0.011-0.26-0.027-0.374-0.051c-0.045,0-0.097,0-0.153,0
		c-0.057,0-0.108-0.011-0.153-0.033c-0.023,0.022-0.045,0.033-0.068,0.033c-0.023,0-0.046,0-0.068,0
		c-0.136,0.023-0.278,0.04-0.425,0.051c-0.147,0.012-0.312,0.018-0.492,0.018h-1.359l-1.393-15.421l-7.676,14.878h-1.359h-0.543
		l-7.404-14.572L61.796,60.58h-1.358c-0.068,0-0.142-0.006-0.221-0.018c-0.08-0.011-0.165-0.027-0.255-0.051
		c-0.023,0-0.04,0-0.051,0c-0.012,0-0.029,0-0.051,0c-0.022,0.023-0.045,0.034-0.068,0.034c-0.068,0.022-0.136,0.034-0.204,0.034
		s-0.136,0-0.204,0h-1.358L61.253,37.041z"/>
	<path fill="#FFFFFF" d="M91.245,37.312h1.358h12.295c-0.021,0.114-0.045,0.211-0.066,0.289c-0.023,0.08-0.047,0.153-0.068,0.221
		c0,0.023-0.006,0.051-0.018,0.086c-0.012,0.033-0.018,0.062-0.018,0.084c-0.021,0.046-0.033,0.08-0.033,0.102
		c0,0.023,0,0.058,0,0.103v0.067V38.4c0,0.113,0,0.209,0,0.289c0,0.079,0.012,0.164,0.033,0.254c0,0.046,0.006,0.091,0.018,0.137
		c0.012,0.045,0.027,0.09,0.051,0.135c0.023,0.068,0.039,0.125,0.051,0.17c0.012,0.046,0.029,0.092,0.051,0.137l-1.357-0.035
		c-0.34-0.045-0.68-0.09-1.02-0.135s-0.703-0.08-1.088-0.102c-0.361-0.023-0.729-0.04-1.104-0.052
		c-0.373-0.011-0.752-0.017-1.137-0.017h-0.035c-0.09,0.022-0.176,0.033-0.254,0.033c-0.08,0-0.164,0-0.256,0
		c-0.09,0-0.182,0-0.271,0s-0.17,0-0.236,0c-0.092,0-0.188,0-0.289,0s-0.211,0-0.322,0c-0.092,0.023-0.188,0.035-0.289,0.035
		s-0.199,0-0.289,0c-0.203,0-0.402,0-0.594,0c-0.193,0-0.381,0-0.561,0v8.219h3.736l3.191-0.271h1.359
		c-0.023,0.113-0.051,0.21-0.086,0.289c-0.033,0.08-0.062,0.152-0.084,0.221c-0.023,0.091-0.033,0.176-0.033,0.254
		c0,0.08,0,0.165,0,0.256c0,0.045,0,0.09,0,0.135c0,0.047,0,0.092,0,0.137c0,0.068,0.004,0.125,0.016,0.17s0.018,0.09,0.018,0.136
		c0.021,0.091,0.051,0.187,0.084,0.288c0.035,0.103,0.062,0.21,0.086,0.323l-1.359-0.034l-4.008-0.306h-2.92v9.646
		c0.158,0.046,0.328,0.079,0.508,0.103c0.182,0.021,0.375,0.033,0.578,0.033c0.182,0.023,0.361,0.034,0.543,0.034s0.375,0,0.578,0
		c0.113,0,0.215,0,0.307,0c0.09,0,0.18-0.011,0.271-0.034c0.09,0,0.186,0,0.287,0c0.104,0,0.199,0,0.289,0
		c0.453-0.021,0.895-0.045,1.326-0.068c0.43-0.021,0.859-0.045,1.289-0.067c0.408-0.045,0.781-0.085,1.121-0.118
		c0.34-0.035,0.646-0.062,0.918-0.086l1.357-0.033c-0.021,0.113-0.051,0.221-0.084,0.322s-0.062,0.209-0.086,0.322
		c-0.021,0.092-0.033,0.182-0.033,0.271c0,0.092,0,0.182,0,0.272s0,0.182,0,0.271c0,0.091,0.012,0.182,0.033,0.272
		c0.023,0.09,0.053,0.17,0.086,0.237s0.062,0.113,0.084,0.136h-1.357H91.245V37.312z"/>
	<path fill="#FFFFFF" d="M132.481,37.312c-0.023,0.092-0.041,0.165-0.053,0.222s-0.027,0.107-0.051,0.153
		c-0.021,0.045-0.033,0.09-0.033,0.135c0,0.046,0,0.092,0,0.137c-0.023,0.067-0.039,0.125-0.051,0.17s-0.018,0.09-0.018,0.135
		c0,0.047,0,0.098,0,0.153c0,0.058,0,0.108,0,0.153c0,0.09,0,0.187,0,0.289c0,0.102,0.012,0.209,0.035,0.322
		c0.021,0.09,0.051,0.187,0.084,0.289c0.033,0.102,0.062,0.209,0.086,0.322c-0.092,0-0.176-0.006-0.256-0.018
		c-0.08-0.011-0.152-0.027-0.221-0.051c-0.068,0-0.135-0.011-0.203-0.033c-0.068-0.023-0.137-0.046-0.205-0.068
		c-0.34-0.045-0.678-0.09-1.018-0.137c-0.34-0.045-0.668-0.09-0.986-0.135c-0.34-0.022-0.678-0.057-1.018-0.102
		c-0.34-0.046-0.68-0.08-1.02-0.103c-0.68-0.046-1.365-0.085-2.055-0.119c-0.691-0.034-1.398-0.051-2.123-0.051v8.22h5.094
		l3.465-0.271c-0.021,0.113-0.045,0.209-0.066,0.289c-0.023,0.079-0.047,0.152-0.068,0.221c0,0.022-0.006,0.051-0.018,0.084
		c-0.012,0.035-0.018,0.062-0.018,0.086c-0.021,0.045-0.033,0.079-0.033,0.102s0,0.057,0,0.102c0,0.023,0,0.04,0,0.051
		c0,0.012,0,0.029,0,0.051c0,0.023,0,0.047,0,0.068c0,0.023,0,0.046,0,0.068c0,0.09,0,0.176,0,0.254c0,0.08,0.012,0.165,0.033,0.256
		c0,0.045,0.006,0.09,0.018,0.135c0.012,0.046,0.027,0.092,0.051,0.137c0.023,0.067,0.039,0.125,0.051,0.17s0.029,0.09,0.051,0.135
		l-3.465-0.305h-5.094V60.58c-0.092,0-0.188-0.006-0.289-0.018c-0.102-0.011-0.209-0.027-0.322-0.051
		c-0.113-0.021-0.232-0.039-0.357-0.051c-0.125-0.011-0.244-0.017-0.355-0.017c-0.068,0-0.137,0-0.205,0s-0.125,0.012-0.17,0.034
		c-0.066,0-0.135,0.006-0.203,0.017c-0.068,0.012-0.137,0.017-0.203,0.017c-0.137,0.023-0.273,0.04-0.408,0.051
		c-0.137,0.012-0.271,0.018-0.408,0.018V37.312H132.481z"/>
	<path fill="#FFFFFF" d="M137.575,37.312h12.295c-0.023,0.114-0.045,0.211-0.068,0.289c-0.021,0.08-0.045,0.153-0.066,0.221
		c0,0.023-0.006,0.051-0.018,0.086c-0.012,0.033-0.018,0.062-0.018,0.084c-0.021,0.046-0.033,0.08-0.033,0.102
		c0,0.023,0,0.058,0,0.103c0,0.022,0,0.04,0,0.051c0,0.012,0,0.028,0,0.052c0,0.022,0,0.045,0,0.067s0,0.046,0,0.067
		c0,0.092,0,0.176,0,0.256c0,0.079,0.012,0.164,0.033,0.254c0,0.046,0.006,0.091,0.018,0.137c0.012,0.045,0.027,0.09,0.051,0.135
		c0.021,0.068,0.039,0.125,0.051,0.17c0.012,0.046,0.027,0.092,0.051,0.137c-0.34-0.068-0.68-0.125-1.02-0.17
		c-0.338-0.045-0.701-0.08-1.086-0.102c-0.363-0.023-0.73-0.04-1.104-0.052c-0.375-0.011-0.754-0.017-1.139-0.017
		c-0.113,0-0.227,0-0.34,0s-0.227,0-0.34,0s-0.232,0-0.355,0c-0.125,0-0.244,0-0.357,0c-0.09,0.022-0.176,0.033-0.254,0.033
		c-0.08,0-0.166,0-0.256,0s-0.182,0-0.271,0s-0.17,0-0.238,0c-0.09,0-0.186,0-0.287,0c-0.104,0-0.211,0-0.324,0
		c-0.09,0.023-0.186,0.035-0.287,0.035c-0.104,0-0.199,0-0.289,0c-0.205,0-0.402,0-0.596,0c-0.191,0-0.379,0-0.561,0v8.219h5.096
		l3.193-0.271c-0.023,0.113-0.051,0.21-0.086,0.289c-0.033,0.08-0.062,0.152-0.084,0.221c-0.023,0.091-0.035,0.176-0.035,0.254
		c0,0.08,0,0.165,0,0.256c0,0.045,0,0.09,0,0.135c0,0.047,0,0.092,0,0.137c0,0.068,0.006,0.125,0.018,0.17s0.018,0.09,0.018,0.136
		c0.021,0.091,0.051,0.187,0.084,0.288c0.035,0.103,0.062,0.21,0.086,0.323l-4.008-0.34h-4.281v9.646
		c0.158,0.046,0.328,0.079,0.51,0.103c0.182,0.021,0.375,0.033,0.578,0.033c0.203,0.023,0.418,0.034,0.645,0.034s0.453,0,0.68,0
		c0.182,0,0.363,0,0.543,0c0.182,0,0.375,0,0.578,0c0.113,0,0.215,0,0.307,0c0.09,0,0.191-0.011,0.305-0.034c0.09,0,0.188,0,0.289,0
		s0.197,0,0.289,0c0.453-0.021,0.895-0.045,1.324-0.068c0.43-0.021,0.859-0.045,1.291-0.067c0.408-0.045,0.781-0.085,1.121-0.118
		c0.34-0.035,0.645-0.062,0.916-0.086c-0.021,0.092-0.051,0.188-0.084,0.289c-0.035,0.102-0.062,0.209-0.086,0.322
		c-0.021,0.092-0.033,0.182-0.033,0.271c0,0.092,0,0.182,0,0.272s0,0.182,0,0.271c0,0.091,0.012,0.182,0.033,0.272
		c0.023,0.09,0.051,0.17,0.086,0.237c0.033,0.067,0.062,0.113,0.084,0.136h-12.566V37.312z"/>
	<path fill="#FFFFFF" d="M154.93,37.041h1.631l16.305,17.935V37.041c0.068,0.068,0.141,0.119,0.221,0.153
		c0.078,0.034,0.164,0.062,0.254,0.085c0.09,0.023,0.188,0.033,0.289,0.033s0.197,0,0.289,0c0.045,0,0.09,0,0.135,0
		c0.047,0,0.104,0,0.17,0c0.047,0,0.092-0.004,0.137-0.016s0.09-0.018,0.137-0.018c0.111-0.022,0.209-0.051,0.287-0.085
		c0.08-0.034,0.154-0.062,0.221-0.085V60.58h-1.324l-16.609-18.443V60.58c-0.068,0-0.135-0.006-0.203-0.018
		c-0.068-0.011-0.148-0.027-0.238-0.051c-0.09-0.021-0.176-0.039-0.254-0.051c-0.08-0.011-0.166-0.017-0.256-0.017
		c-0.045,0-0.09,0-0.135,0c-0.047,0-0.092,0.012-0.137,0.034c-0.068,0-0.125,0.006-0.17,0.017c-0.045,0.012-0.09,0.017-0.135,0.017
		c-0.092,0.023-0.188,0.04-0.289,0.051c-0.102,0.012-0.211,0.018-0.324,0.018V37.041z"/>
</g>
</svg>
