<?xml version="1.0" encoding="utf-8"?>
<!-- Generator: Adobe Illustrator 16.0.0, SVG Export Plug-In . SVG Version: 6.00 Build 0)  -->
<!DOCTYPE svg PUBLIC "-//W3C//DTD SVG 1.0//EN" "http://www.w3.org/TR/2001/REC-SVG-20010904/DTD/svg10.dtd">
<svg version="1.0" xmlns="http://www.w3.org/2000/svg" xmlns:xlink="http://www.w3.org/1999/xlink" x="0px" y="0px"
	 width="242.958px" height="71.831px" viewBox="0 0 242.958 71.831" enable-background="new 0 0 242.958 71.831"
	 xml:space="preserve">
<g id="Capa_1">
	<g>
		<path fill="#FFFFFF" d="M11.842,42.095c-0.023,0.023-0.046,0.034-0.068,0.034c-0.023,0-0.045,0-0.068,0
			c-0.022,0.023-0.045,0.035-0.068,0.035c-0.023,0-0.046,0-0.068,0c-0.341,0.022-0.688,0.051-1.04,0.084
			c-0.354,0.035-0.712,0.074-1.076,0.12c-0.136,0.023-0.267,0.041-0.392,0.052c-0.125,0.011-0.244,0.028-0.358,0.05
			c-0.114,0.023-0.233,0.04-0.358,0.051c-0.125,0.012-0.244,0.017-0.358,0.017c-0.228,0.022-0.449,0.051-0.666,0.085
			c-0.215,0.034-0.426,0.074-0.631,0.119c-0.204,0.023-0.386,0.045-0.544,0.068c-0.16,0.022-0.308,0.045-0.445,0.068l-1.363-0.034
			c0.022-0.022,0.039-0.062,0.051-0.119c0.011-0.057,0.028-0.107,0.05-0.153c0-0.045,0.006-0.091,0.018-0.137
			c0.011-0.045,0.028-0.103,0.051-0.17c0-0.045,0-0.091,0-0.137c0-0.045,0-0.09,0-0.136c0-0.022,0-0.045,0-0.068
			c0-0.022,0.011-0.057,0.035-0.102c0-0.023,0-0.045,0-0.068c0-0.022,0-0.045,0-0.069c0-0.114-0.006-0.222-0.017-0.324
			c-0.012-0.103-0.03-0.199-0.052-0.29c-0.022-0.114-0.04-0.222-0.051-0.325c-0.012-0.102-0.04-0.199-0.085-0.29l17.974-0.068h1.365
			c-0.023,0.091-0.041,0.166-0.052,0.222c-0.012,0.056-0.029,0.108-0.051,0.153c-0.023,0.045-0.034,0.09-0.034,0.136
			c0,0.046,0,0.092,0,0.137c-0.023,0.067-0.04,0.125-0.051,0.17c-0.012,0.046-0.017,0.091-0.017,0.136c0,0.046,0,0.097,0,0.154
			c0,0.057,0,0.108,0,0.154c0,0.092,0,0.187,0,0.291c0,0.101,0.011,0.209,0.033,0.323c0.023,0.09,0.052,0.188,0.086,0.29
			c0.034,0.103,0.062,0.211,0.086,0.324l-1.365-0.034c-0.795-0.113-1.569-0.221-2.319-0.324c-0.75-0.102-1.466-0.188-2.148-0.256
			c-0.318-0.045-0.614-0.074-0.886-0.085c-0.273-0.011-0.536-0.029-0.786-0.052v21.897h-1.364c-0.045,0-0.097,0-0.153,0
			c-0.057,0-0.108-0.011-0.154-0.034c-0.067,0-0.13-0.006-0.187-0.017c-0.057-0.011-0.108-0.018-0.154-0.018h-0.034h-0.034
			c-0.023,0-0.046,0-0.068,0c-0.136,0.023-0.273,0.041-0.409,0.052c-0.137,0.011-0.273,0.017-0.41,0.017h-1.364V42.095z"/>
		<path fill="#FFFFFF" d="M29.117,40.543c0.103,0.035,0.222,0.063,0.358,0.085c0.022,0,0.04,0,0.05,0c0.011,0,0.029,0,0.052,0
			c0.022,0,0.039,0,0.051,0c0.011,0,0.028,0,0.051,0c0.137-0.022,0.267-0.05,0.392-0.085c0.125-0.034,0.233-0.062,0.324-0.085
			l1.364-0.034v23.602h-1.364c-0.091,0-0.199-0.005-0.324-0.017c-0.125-0.011-0.244-0.029-0.357-0.052c-0.023,0-0.04,0-0.051,0
			c-0.012,0-0.028,0-0.05,0c-0.023,0-0.046,0-0.069,0c-0.023,0-0.046,0-0.068,0c-0.136,0.023-0.256,0.041-0.358,0.052
			s-0.211,0.017-0.324,0.017h-1.365V40.39h1.365C28.906,40.458,29.014,40.509,29.117,40.543z"/>
		<path fill="#FFFFFF" d="M37.967,40.663h1.365h12.346c-0.022,0.114-0.045,0.211-0.067,0.291c-0.023,0.08-0.046,0.152-0.069,0.221
			c0,0.023-0.005,0.051-0.016,0.085c-0.012,0.035-0.018,0.062-0.018,0.085c-0.023,0.046-0.034,0.081-0.034,0.103
			c0,0.023,0,0.057,0,0.103v0.067v0.137c0,0.114,0,0.21,0,0.289c0,0.081,0.011,0.166,0.034,0.256c0,0.045,0.006,0.091,0.018,0.136
			c0.011,0.046,0.027,0.092,0.05,0.137c0.022,0.067,0.041,0.125,0.051,0.17c0.011,0.045,0.029,0.091,0.051,0.136l-1.363-0.034
			c-0.342-0.045-0.682-0.09-1.024-0.136c-0.341-0.045-0.705-0.08-1.091-0.103c-0.364-0.022-0.733-0.038-1.109-0.051
			c-0.375-0.011-0.755-0.017-1.143-0.017h-0.035c-0.09,0.022-0.175,0.035-0.255,0.035s-0.166,0-0.255,0c-0.091,0-0.182,0-0.273,0
			c-0.092,0-0.171,0-0.238,0c-0.092,0-0.188,0-0.291,0s-0.21,0-0.324,0c-0.091,0.022-0.188,0.033-0.29,0.033c-0.103,0-0.2,0-0.291,0
			c-0.204,0-0.403,0-0.597,0c-0.193,0-0.381,0-0.562,0v8.254h3.752l3.206-0.272h1.364c-0.022,0.114-0.051,0.21-0.084,0.29
			c-0.034,0.08-0.063,0.153-0.086,0.222c-0.022,0.091-0.034,0.176-0.034,0.256c0,0.079,0,0.166,0,0.256c0,0.045,0,0.091,0,0.136
			c0,0.045,0,0.091,0,0.136c0,0.068,0.004,0.126,0.017,0.171c0.011,0.045,0.017,0.091,0.017,0.136
			c0.023,0.092,0.052,0.188,0.086,0.291c0.033,0.102,0.062,0.21,0.084,0.324l-1.364-0.035l-4.024-0.307h-2.933v9.686
			c0.159,0.046,0.329,0.081,0.512,0.103c0.181,0.023,0.375,0.035,0.58,0.035c0.182,0.023,0.363,0.034,0.545,0.034s0.375,0,0.58,0
			c0.114,0,0.215,0,0.307,0c0.091,0,0.181-0.011,0.273-0.034c0.091,0,0.188,0,0.29,0c0.103,0,0.199,0,0.289,0
			c0.456-0.022,0.899-0.045,1.331-0.069c0.432-0.022,0.864-0.045,1.296-0.068c0.409-0.044,0.785-0.085,1.126-0.119
			c0.341-0.033,0.648-0.062,0.921-0.085l1.364-0.035c-0.022,0.115-0.051,0.223-0.085,0.325c-0.034,0.102-0.063,0.21-0.085,0.324
			c-0.023,0.09-0.034,0.182-0.034,0.272c0,0.091,0,0.182,0,0.273c0,0.09,0,0.182,0,0.273s0.011,0.182,0.034,0.272
			c0.022,0.092,0.051,0.171,0.085,0.24c0.034,0.067,0.063,0.114,0.085,0.136h-1.364h-12.62V40.663z"/>
		<path fill="#FFFFFF" d="M56.761,40.39h1.364h1.637l15.007,16.507V40.39h1.365c0.045,0.068,0.103,0.115,0.17,0.137
			c0.069,0.022,0.137,0.045,0.205,0.068c0.091-0.022,0.172-0.045,0.24-0.068c0.067-0.022,0.124-0.045,0.17-0.068l1.364-0.034v23.602
			h-1.364h-1.331L60.273,47.007v17.019H58.91c-0.023,0-0.046,0-0.068,0c-0.023,0-0.046,0-0.068,0c-0.045,0-0.08-0.005-0.102-0.017
			c-0.023-0.011-0.046-0.017-0.069-0.017c-0.046,0-0.085,0-0.119,0s-0.074,0.012-0.12,0.034c-0.046,0-0.085,0-0.119,0
			s-0.074,0-0.12,0h-1.364V40.39z"/>
		<path fill="#FFFFFF" d="M97.109,40.39c1.955,0.046,3.609,0.347,4.963,0.904c1.352,0.558,2.415,1.381,3.188,2.473
			c0.773,1.09,1.353,2.279,1.74,3.563c0.386,1.285,0.58,2.667,0.58,4.144c0,0.364-0.017,0.739-0.051,1.126
			c-0.034,0.387-0.085,0.795-0.154,1.228c-0.068,0.432-0.153,0.858-0.256,1.278c-0.102,0.421-0.232,0.847-0.392,1.278
			c-0.341,0.911-0.802,1.792-1.381,2.644c-0.58,0.854-1.28,1.678-2.098,2.473c-0.818,0.773-1.83,1.376-3.036,1.808
			c-1.205,0.433-2.591,0.671-4.16,0.716h-1.365h-9.96V40.39h1.365H97.109z M89.333,42.027v20.396
			c0.272,0.046,0.54,0.081,0.801,0.103c0.261,0.023,0.517,0.046,0.768,0.069c0.067,0,0.13,0,0.187,0c0.057,0,0.108,0,0.154,0
			c0.068,0.022,0.13,0.034,0.188,0.034c0.057,0,0.107,0,0.153,0c1.842-0.045,3.445-0.272,4.81-0.683
			c1.364-0.409,2.467-1,3.309-1.773c0.887-0.818,1.586-1.932,2.098-3.342c0.512-1.41,0.823-3.104,0.937-5.082
			c0-0.045,0-0.09,0-0.136s0.013-0.091,0.035-0.137c0-0.045,0-0.091,0-0.136c0-0.045,0-0.091,0-0.137c0-0.091,0-0.176,0-0.255
			s0-0.165,0-0.256c0-1.546-0.199-2.854-0.597-3.922c-0.397-1.069-0.994-1.911-1.79-2.524c-0.797-0.614-1.632-1.113-2.507-1.5
			s-1.791-0.648-2.745-0.784c-0.115-0.022-0.228-0.04-0.342-0.051c-0.113-0.011-0.227-0.018-0.341-0.018
			c-0.136-0.022-0.261-0.039-0.375-0.051c-0.114-0.011-0.228-0.016-0.341-0.016c-0.067,0-0.136-0.006-0.205-0.018
			c-0.068-0.011-0.125-0.016-0.17-0.016c-0.069,0-0.137,0-0.205,0c-0.069,0-0.137,0-0.205,0c-0.068,0-0.136,0-0.205,0
			c-0.068,0-0.136,0-0.205,0c-0.091,0-0.17,0.005-0.239,0.016c-0.068,0.012-0.136,0.018-0.205,0.018
			c-0.251,0.022-0.49,0.04-0.716,0.051c-0.228,0.012-0.444,0.029-0.648,0.051c-0.159,0.023-0.306,0.04-0.443,0.05
			c-0.136,0.012-0.262,0.018-0.375,0.018c-0.115,0.023-0.222,0.04-0.325,0.05c-0.102,0.013-0.187,0.018-0.255,0.018V42.027z"/>
		<path fill="#FFFFFF" d="M114.384,40.543c0.103,0.035,0.222,0.063,0.358,0.085c0.022,0,0.04,0,0.051,0c0.011,0,0.028,0,0.052,0
			c0.022,0,0.039,0,0.05,0c0.012,0,0.028,0,0.051,0c0.137-0.022,0.267-0.05,0.392-0.085c0.125-0.034,0.233-0.062,0.324-0.085
			l1.364-0.034v23.602h-1.364c-0.091,0-0.199-0.005-0.324-0.017s-0.244-0.029-0.358-0.052c-0.023,0-0.04,0-0.051,0
			c-0.012,0-0.029,0-0.051,0c-0.023,0-0.046,0-0.069,0c-0.023,0-0.046,0-0.068,0c-0.136,0.023-0.255,0.041-0.358,0.052
			c-0.103,0.011-0.211,0.017-0.324,0.017h-1.365V40.39h1.365C114.173,40.458,114.282,40.509,114.384,40.543z"/>
		<path fill="#FFFFFF" d="M128.317,42.095c-0.023,0.023-0.046,0.034-0.068,0.034c-0.023,0-0.045,0-0.069,0
			c-0.022,0.023-0.045,0.035-0.067,0.035c-0.023,0-0.046,0-0.068,0c-0.341,0.022-0.688,0.051-1.04,0.084
			c-0.354,0.035-0.711,0.074-1.075,0.12c-0.136,0.023-0.268,0.041-0.392,0.052c-0.125,0.011-0.245,0.028-0.358,0.05
			c-0.114,0.023-0.233,0.04-0.358,0.051c-0.125,0.012-0.244,0.017-0.358,0.017c-0.228,0.022-0.449,0.051-0.666,0.085
			c-0.215,0.034-0.426,0.074-0.631,0.119c-0.205,0.023-0.386,0.045-0.544,0.068c-0.16,0.022-0.307,0.045-0.444,0.068l-1.364-0.034
			c0.022-0.022,0.039-0.062,0.051-0.119c0.011-0.057,0.029-0.107,0.051-0.153c0-0.045,0.005-0.091,0.018-0.137
			c0.011-0.045,0.027-0.103,0.051-0.17c0-0.045,0-0.091,0-0.137c0-0.045,0-0.09,0-0.136c0-0.022,0-0.045,0-0.068
			c0-0.022,0.011-0.057,0.034-0.102c0-0.023,0-0.045,0-0.068c0-0.022,0-0.045,0-0.069c0-0.114-0.006-0.222-0.017-0.324
			c-0.012-0.103-0.03-0.199-0.052-0.29c-0.022-0.114-0.04-0.222-0.051-0.325c-0.012-0.102-0.04-0.199-0.085-0.29l17.974-0.068h1.365
			c-0.022,0.091-0.04,0.166-0.052,0.222c-0.011,0.056-0.028,0.108-0.051,0.153c-0.023,0.045-0.034,0.09-0.034,0.136
			c0,0.046,0,0.092,0,0.137c-0.023,0.067-0.041,0.125-0.051,0.17c-0.012,0.046-0.017,0.091-0.017,0.136c0,0.046,0,0.097,0,0.154
			c0,0.057,0,0.108,0,0.154c0,0.092,0,0.187,0,0.291c0,0.101,0.011,0.209,0.033,0.323c0.023,0.09,0.052,0.188,0.086,0.29
			c0.033,0.103,0.062,0.211,0.085,0.324l-1.365-0.034c-0.795-0.113-1.569-0.221-2.319-0.324c-0.751-0.102-1.467-0.188-2.149-0.256
			c-0.318-0.045-0.615-0.074-0.886-0.085c-0.273-0.011-0.535-0.029-0.785-0.052v21.897h-1.365c-0.045,0-0.097,0-0.154,0
			c-0.056,0-0.108-0.011-0.153-0.034c-0.067,0-0.13-0.006-0.187-0.017c-0.057-0.011-0.108-0.018-0.153-0.018h-0.034h-0.034
			c-0.023,0-0.047,0-0.069,0c-0.136,0.023-0.273,0.041-0.409,0.052c-0.137,0.011-0.273,0.017-0.409,0.017h-1.364V42.095z"/>
		<path fill="#FFFFFF" d="M151.715,40.117h1.365h0.784l10.505,23.909h-1.365c-0.068,0-0.143,0-0.222,0c-0.08,0-0.165,0-0.255,0
			c-0.092,0-0.177,0-0.256,0c-0.08,0-0.176,0-0.29,0c-0.046,0-0.097,0-0.154,0s-0.108-0.011-0.154-0.034c-0.045,0-0.096,0-0.153,0
			c-0.057,0-0.107,0-0.153,0c-0.046,0.023-0.097,0.034-0.153,0.034c-0.058,0-0.109,0-0.154,0s-0.09,0-0.136,0s-0.08,0-0.103,0
			c-0.046,0-0.085,0-0.119,0s-0.074,0-0.119,0h-1.365l-3.751-9.413h-6.958l-3.479,9.413h-1.366c-0.045,0-0.097,0-0.153,0
			c-0.056,0-0.108,0-0.153,0l-0.17-0.034c-0.023,0.023-0.058,0.034-0.103,0.034s-0.079,0-0.102,0c-0.046,0-0.085,0-0.12,0
			s-0.074,0-0.119,0h-1.365c-0.067,0-0.136,0-0.205,0s-0.136,0-0.205,0L151.715,40.117z M154.921,53.009l-2.797-6.685l-2.796,6.685
			H154.921z"/>
		<path fill="#FFFFFF" d="M190.7,40.663c-0.023,0.091-0.04,0.166-0.051,0.222c-0.012,0.056-0.029,0.108-0.052,0.153
			c-0.022,0.045-0.033,0.091-0.033,0.136c0,0.046,0,0.091,0,0.137c-0.023,0.067-0.041,0.125-0.052,0.17
			c-0.011,0.045-0.016,0.09-0.016,0.136c0,0.046,0,0.097,0,0.153c0,0.058,0,0.109,0,0.154c0,0.091,0,0.188,0,0.29
			c0,0.103,0.011,0.21,0.034,0.324c0.022,0.091,0.051,0.188,0.085,0.29c0.034,0.103,0.062,0.211,0.085,0.324
			c-0.091,0-0.177-0.006-0.256-0.017c-0.081-0.012-0.153-0.029-0.222-0.051c-0.068,0-0.137-0.013-0.205-0.035
			c-0.068-0.023-0.137-0.045-0.205-0.068c-0.341-0.045-0.682-0.091-1.022-0.137c-0.342-0.045-0.672-0.09-0.99-0.136
			c-0.341-0.022-0.683-0.057-1.023-0.103c-0.342-0.045-0.683-0.078-1.023-0.102c-0.683-0.045-1.37-0.084-2.064-0.119
			c-0.693-0.034-1.404-0.052-2.132-0.052v8.255h5.117l3.479-0.273c-0.023,0.114-0.045,0.21-0.068,0.289
			c-0.022,0.08-0.045,0.154-0.068,0.222c0,0.022-0.006,0.051-0.017,0.085c-0.012,0.034-0.017,0.063-0.017,0.085
			c-0.023,0.045-0.035,0.079-0.035,0.103c0,0.022,0,0.057,0,0.102c0,0.023,0,0.04,0,0.051c0,0.012,0,0.029,0,0.051s0,0.045,0,0.067
			c0,0.023,0,0.046,0,0.068c0,0.092,0,0.177,0,0.256s0.011,0.165,0.035,0.255c0,0.046,0.005,0.092,0.017,0.137
			c0.011,0.045,0.029,0.091,0.052,0.136c0.022,0.068,0.039,0.125,0.05,0.17c0.011,0.046,0.028,0.091,0.051,0.137l-3.479-0.307
			h-5.117v11.801c-0.09,0-0.187-0.005-0.29-0.017c-0.102-0.011-0.209-0.029-0.323-0.052c-0.114-0.022-0.233-0.039-0.358-0.05
			c-0.126-0.012-0.245-0.017-0.358-0.017c-0.068,0-0.137,0-0.204,0c-0.069,0-0.126,0.011-0.172,0.033
			c-0.067,0-0.136,0.007-0.204,0.018c-0.068,0.012-0.136,0.017-0.204,0.017c-0.137,0.023-0.273,0.041-0.409,0.052
			c-0.137,0.011-0.273,0.017-0.41,0.017V40.663H190.7z"/>
		<path fill="#FFFFFF" d="M195.815,40.663h12.347c-0.023,0.114-0.046,0.211-0.069,0.291c-0.023,0.08-0.045,0.152-0.068,0.221
			c0,0.023-0.006,0.051-0.017,0.085c-0.012,0.035-0.017,0.062-0.017,0.085c-0.023,0.046-0.034,0.081-0.034,0.103
			c0,0.023,0,0.057,0,0.103c0,0.022,0,0.04,0,0.051c0,0.012,0,0.029,0,0.051c0,0.023,0,0.046,0,0.068c0,0.023,0,0.045,0,0.069
			c0,0.09,0,0.175,0,0.254c0,0.081,0.011,0.166,0.034,0.256c0,0.045,0.004,0.091,0.017,0.136c0.011,0.046,0.028,0.092,0.051,0.137
			c0.023,0.067,0.04,0.125,0.052,0.17c0.011,0.045,0.028,0.091,0.051,0.136c-0.342-0.068-0.682-0.124-1.024-0.17
			c-0.341-0.045-0.705-0.08-1.091-0.103c-0.364-0.022-0.732-0.038-1.109-0.051c-0.375-0.011-0.755-0.017-1.143-0.017
			c-0.114,0-0.228,0-0.34,0c-0.115,0-0.228,0-0.341,0c-0.114,0-0.234,0-0.359,0c-0.125,0-0.244,0-0.358,0
			c-0.092,0.022-0.176,0.035-0.256,0.035s-0.165,0-0.256,0c-0.091,0-0.182,0-0.273,0s-0.17,0-0.238,0c-0.091,0-0.188,0-0.29,0
			c-0.103,0-0.211,0-0.325,0c-0.09,0.022-0.187,0.033-0.289,0.033c-0.102,0-0.199,0-0.29,0c-0.205,0-0.404,0-0.596,0
			c-0.194,0-0.381,0-0.563,0v8.254h5.116l3.206-0.272c-0.023,0.114-0.05,0.21-0.085,0.29c-0.034,0.08-0.063,0.153-0.085,0.222
			c-0.023,0.091-0.035,0.176-0.035,0.256c0,0.079,0,0.166,0,0.256c0,0.045,0,0.091,0,0.136c0,0.045,0,0.091,0,0.136
			c0,0.068,0.006,0.126,0.017,0.171c0.012,0.045,0.018,0.091,0.018,0.136c0.022,0.092,0.051,0.188,0.085,0.291
			c0.035,0.102,0.062,0.21,0.085,0.324l-4.025-0.341h-4.297v9.686c0.159,0.046,0.329,0.081,0.512,0.103
			c0.182,0.023,0.375,0.035,0.58,0.035c0.205,0.023,0.42,0.034,0.647,0.034c0.228,0,0.456,0,0.683,0c0.182,0,0.364,0,0.546,0
			c0.181,0,0.375,0,0.579,0c0.114,0,0.217,0,0.307,0c0.091,0,0.194-0.011,0.307-0.034c0.09,0,0.188,0,0.29,0
			c0.103,0,0.199,0,0.289,0c0.455-0.022,0.899-0.045,1.331-0.069c0.432-0.022,0.864-0.045,1.296-0.068
			c0.409-0.044,0.785-0.085,1.126-0.119c0.341-0.033,0.648-0.062,0.92-0.085c-0.022,0.092-0.051,0.188-0.084,0.291
			c-0.035,0.102-0.063,0.21-0.086,0.324c-0.023,0.09-0.034,0.182-0.034,0.272c0,0.091,0,0.182,0,0.273c0,0.09,0,0.182,0,0.273
			s0.011,0.182,0.034,0.272c0.022,0.092,0.051,0.171,0.086,0.24c0.034,0.067,0.062,0.114,0.084,0.136h-12.62V40.663z"/>
		<path fill="#FFFFFF" d="M213.244,40.39h1.638l16.371,18.008V40.39c0.069,0.068,0.143,0.12,0.223,0.153
			c0.079,0.035,0.164,0.063,0.256,0.085c0.089,0.023,0.187,0.035,0.289,0.035c0.102,0,0.2,0,0.291,0c0.045,0,0.09,0,0.136,0
			c0.045,0,0.102,0,0.17,0c0.045,0,0.091-0.006,0.136-0.017c0.045-0.011,0.091-0.018,0.137-0.018c0.114-0.022,0.21-0.05,0.29-0.085
			c0.079-0.034,0.153-0.062,0.222-0.085v23.568h-1.331l-16.678-18.52v18.52c-0.068,0-0.137-0.005-0.205-0.017
			c-0.068-0.011-0.148-0.029-0.239-0.052c-0.09-0.022-0.176-0.039-0.255-0.05c-0.08-0.012-0.166-0.017-0.256-0.017
			c-0.045,0-0.09,0-0.136,0c-0.046,0-0.091,0.011-0.136,0.033c-0.068,0-0.126,0.007-0.171,0.018
			c-0.045,0.012-0.091,0.017-0.136,0.017c-0.092,0.023-0.188,0.041-0.291,0.052c-0.102,0.011-0.21,0.017-0.324,0.017V40.39z"/>
	</g>
</g>
<g id="Capa_2" display="none">
	<text transform="matrix(1 0 0 1 315.0503 218.6475)" display="inline"><tspan x="0" y="0" fill="#FFFFFF" font-family="'Optima-Bold'" font-size="18">TIENDITA </tspan><tspan x="90.702" y="0" fill="#FFFFFF" font-family="'Optima'" font-size="18">FEN</tspan></text>
</g>
</svg>
